<svg width="14" height="14" viewBox="0 0 14 14" fill="none" xmlns="http://www.w3.org/2000/svg">
<path fill-rule="evenodd" clip-rule="evenodd" d="M6.63013 0.0571289C6.99832 0.0571289 7.29679 0.355606 7.29679 0.723796V5.89046H12.4635C12.8317 5.89046 13.1301 6.18894 13.1301 6.55713C13.1301 6.92532 12.8317 7.2238 12.4635 7.2238H7.29679V12.3905C7.29679 12.7587 6.99832 13.0571 6.63013 13.0571C6.26194 13.0571 5.96346 12.7587 5.96346 12.3905V7.2238H0.796794C0.428604 7.2238 0.130127 6.92532 0.130127 6.55713C0.130127 6.18894 0.428604 5.89046 0.796794 5.89046H5.96346V0.723796C5.96346 0.355606 6.26194 0.0571289 6.63013 0.0571289Z" fill="#757575"/>
</svg>
