<svg width="25" height="25" viewBox="0 0 25 25" fill="none" xmlns="http://www.w3.org/2000/svg">
<path d="M5.68164 5.3877L12.4316 12.1377M19.1816 18.8877L12.4316 12.1377M12.4316 12.1377L19.1816 5.3877M12.4316 12.1377L5.68164 18.8877" stroke="black" stroke-width="2" stroke-linecap="round" stroke-linejoin="round"/>
<path fill-rule="evenodd" clip-rule="evenodd" d="M4.97453 4.68059C5.36506 4.29006 5.99822 4.29006 6.38875 4.68059L12.4316 10.7235L18.4745 4.68059C18.8651 4.29006 19.4982 4.29006 19.8887 4.68059C20.2793 5.07111 20.2793 5.70428 19.8887 6.0948L13.8459 12.1377L19.8887 18.1806C20.2793 18.5711 20.2793 19.2043 19.8887 19.5948C19.4982 19.9853 18.8651 19.9853 18.4745 19.5948L12.4316 13.5519L6.38875 19.5948C5.99822 19.9853 5.36506 19.9853 4.97453 19.5948C4.58401 19.2043 4.58401 18.5711 4.97453 18.1806L11.0174 12.1377L4.97453 6.0948C4.58401 5.70428 4.58401 5.07111 4.97453 4.68059Z" fill="#424242"/>
</svg>
