<svg width="13" height="13" viewBox="0 0 13 13" fill="none" xmlns="http://www.w3.org/2000/svg">
<path fill-rule="evenodd" clip-rule="evenodd" d="M9.37315 3.10757H12.3881C12.6894 3.10757 12.9336 3.35177 12.9336 3.65302C12.9336 3.95427 12.6894 4.19848 12.3881 4.19848H11.7924L11.2489 9.8153C11.2102 10.2151 11.1781 10.5464 11.1306 10.8159C11.0811 11.0968 11.0083 11.3528 10.8661 11.5907C10.6445 11.9615 10.3177 12.2582 9.92725 12.4431C9.67684 12.5617 9.41498 12.6094 9.1306 12.6317C8.85777 12.653 8.52499 12.653 8.12334 12.653H5.74391C5.34226 12.653 5.00942 12.653 4.73658 12.6317C4.45221 12.6094 4.19035 12.5617 3.93994 12.4431C3.54948 12.2582 3.22271 11.9615 3.00105 11.5907C2.85888 11.3528 2.78613 11.0968 2.73658 10.8159C2.68904 10.5464 2.65699 10.2151 2.6183 9.81529L2.07474 4.19848H1.47905C1.1778 4.19848 0.933594 3.95427 0.933594 3.65302C0.933594 3.35177 1.1778 3.10757 1.47905 3.10757H4.49403C4.62971 1.88032 5.67018 0.925781 6.93359 0.925781C8.19701 0.925781 9.23747 1.88032 9.37315 3.10757ZM5.01841 4.19848H3.17075L3.70209 9.68904C3.74335 10.1154 3.77166 10.4039 3.8109 10.6264C3.84898 10.8422 3.89082 10.953 3.93742 11.0309C4.04825 11.2163 4.21164 11.3647 4.40686 11.4571C4.48894 11.496 4.60321 11.527 4.82172 11.5441C5.04696 11.5617 5.33687 11.5621 5.76518 11.5621H8.10201C8.53031 11.5621 8.82023 11.5617 9.04547 11.5441C9.26398 11.527 9.37825 11.496 9.46033 11.4571C9.65555 11.3647 9.81894 11.2163 9.92977 11.0309C9.97637 10.953 10.0182 10.8422 10.0563 10.6264C10.0955 10.4039 10.1238 10.1154 10.1651 9.68904L10.6964 4.19848H8.84877C8.84675 4.1985 8.84472 4.19851 8.84268 4.19851H5.0245C5.02247 4.19851 5.02044 4.1985 5.01841 4.19848ZM8.26995 3.10757C8.14359 2.48515 7.5933 2.01669 6.93359 2.01669C6.27389 2.01669 5.7236 2.48515 5.59724 3.10757H8.26995Z" fill="#F83D38"/>
</svg>
