<svg width="15" height="15" viewBox="0 0 15 15" fill="none" xmlns="http://www.w3.org/2000/svg">
<path fill-rule="evenodd" clip-rule="evenodd" d="M9.97465 0.963764C10.4647 0.760776 11.0153 0.760776 11.5054 0.963764C11.7227 1.05377 11.9015 1.18595 12.0676 1.33083C12.2254 1.46842 12.4038 1.64684 12.6105 1.85361L13.1456 2.38869C13.3524 2.59547 13.5308 2.77389 13.6684 2.93164C13.8133 3.09773 13.9455 3.27659 14.0355 3.49387C14.2385 3.98393 14.2385 4.53455 14.0355 5.02461C13.9455 5.24189 13.8133 5.42075 13.6684 5.58684C13.5308 5.74459 13.3524 5.92301 13.1456 6.12979L5.43802 13.8374C5.43297 13.8424 5.42779 13.8476 5.42248 13.8529C5.3643 13.9113 5.29108 13.9848 5.20557 14.0472C5.094 14.1286 4.97046 14.1922 4.83937 14.2357C4.73888 14.269 4.63654 14.2859 4.5552 14.2993C4.54779 14.3005 4.54055 14.3017 4.53351 14.3029L2.89755 14.5755C2.60784 14.6238 2.35445 14.666 2.14547 14.6849C1.929 14.7044 1.6891 14.7071 1.44794 14.6298C0.935362 14.4656 0.533669 14.0639 0.369407 13.5513C0.292121 13.3101 0.294817 13.0703 0.314347 12.8538C0.333203 12.6448 0.375446 12.3914 0.423744 12.1017L0.6964 10.4657C0.697575 10.4587 0.698768 10.4515 0.69999 10.444C0.7134 10.3627 0.730272 10.2604 0.763595 10.1599C0.807067 10.0288 0.870643 9.90526 0.952047 9.79369C1.01444 9.70817 1.08791 9.63496 1.1463 9.57677C1.15163 9.57146 1.15683 9.56628 1.16188 9.56123L8.86946 1.85365C9.07624 1.64686 9.25466 1.46843 9.41241 1.33083C9.5785 1.18595 9.75736 1.05377 9.97465 0.963764ZM10.9951 2.1956C10.8318 2.12794 10.6482 2.12794 10.4849 2.1956C10.4571 2.2071 10.4037 2.23548 10.2889 2.33563C10.1695 2.43972 10.0233 2.58543 9.7972 2.81152L9.34949 3.25924L11.74 5.64976L12.1877 5.20205C12.4138 4.97595 12.5595 4.82973 12.6636 4.7104C12.7638 4.59558 12.7922 4.5421 12.8036 4.51436C12.8713 4.35101 12.8713 4.16747 12.8036 4.00412C12.7922 3.97637 12.7638 3.92289 12.6636 3.80808C12.5595 3.68875 12.4138 3.54253 12.1877 3.31643L11.6828 2.81152C11.4567 2.58543 11.3105 2.43972 11.1912 2.33563C11.0764 2.23548 11.0229 2.2071 10.9951 2.1956ZM10.7972 6.59257L8.40668 4.20205L2.10469 10.504C2.06459 10.5441 2.04486 10.564 2.03089 10.5788L2.02984 10.5799L2.02955 10.5814C2.02558 10.6014 2.02091 10.629 2.01159 10.6849L1.74285 12.2974C1.6895 12.6175 1.65608 12.8207 1.64229 12.9736C1.63108 13.0979 1.63846 13.1404 1.63955 13.1457C1.67253 13.2472 1.75208 13.3267 1.85355 13.3597C1.85888 13.3608 1.90144 13.3682 2.02566 13.357C2.17851 13.3432 2.38176 13.3098 2.70184 13.2564L4.31431 12.9877C4.37024 12.9783 4.39783 12.9737 4.41783 12.9697L4.41932 12.9694L4.42043 12.9684C4.43528 12.9544 4.45512 12.9347 4.49521 12.8946L10.7972 6.59257Z" fill="black"/>
</svg>
