<svg width="25" height="25" viewBox="0 0 25 25" fill="none" xmlns="http://www.w3.org/2000/svg">
<path fill-rule="evenodd" clip-rule="evenodd" d="M15.9103 5.10121C16.475 4.8673 17.1095 4.8673 17.6742 5.10121C17.9246 5.20492 18.1307 5.35724 18.3221 5.52419C18.5038 5.68274 18.7094 5.88833 18.9477 6.12661L19.5643 6.74319C19.8026 6.98147 20.0082 7.18706 20.1667 7.36884C20.3337 7.56023 20.486 7.76633 20.5897 8.01671C20.8236 8.58142 20.8236 9.21591 20.5897 9.78061C20.486 10.031 20.3337 10.2371 20.1667 10.4285C20.0082 10.6103 19.8026 10.8159 19.5643 11.0541L10.6826 19.9358C10.6768 19.9416 10.6709 19.9476 10.6647 19.9537C10.5977 20.021 10.5133 20.1057 10.4148 20.1776C10.2862 20.2714 10.1439 20.3446 9.9928 20.3947C9.87701 20.4331 9.75908 20.4526 9.66535 20.468C9.65681 20.4694 9.64847 20.4708 9.64036 20.4722L7.7552 20.7863C7.42137 20.842 7.12938 20.8907 6.88856 20.9124C6.63912 20.9349 6.36268 20.938 6.08478 20.849C5.49413 20.6597 5.03125 20.1968 4.84196 19.6061C4.75291 19.3282 4.75601 19.0518 4.77852 18.8024C4.80025 18.5615 4.84892 18.2695 4.90458 17.9357L5.21877 16.0506C5.22012 16.0424 5.2215 16.0341 5.2229 16.0256C5.23836 15.9318 5.2578 15.8139 5.2962 15.6981C5.34629 15.5471 5.41955 15.4047 5.51335 15.2761C5.58526 15.1776 5.66991 15.0932 5.7372 15.0262C5.74334 15.0201 5.74933 15.0141 5.75515 15.0083L14.6368 6.12665C14.8751 5.88835 15.0806 5.68274 15.2624 5.52419C15.4538 5.35724 15.6599 5.20492 15.9103 5.10121ZM17.0862 6.52069C16.898 6.44272 16.6865 6.44272 16.4983 6.52069C16.4663 6.53393 16.4047 6.56664 16.2724 6.68204C16.1349 6.80199 15.9664 6.96989 15.7058 7.23043L15.1899 7.74634L17.9446 10.501L18.4605 9.98508C18.721 9.72455 18.8889 9.55606 19.0089 9.41854C19.1243 9.28624 19.157 9.22462 19.1702 9.19265C19.2482 9.00441 19.2482 8.79291 19.1702 8.60468C19.157 8.57271 19.1243 8.51109 19.0089 8.37878C18.8889 8.24127 18.721 8.07278 18.4605 7.81224L17.8787 7.23043C17.6181 6.96989 17.4496 6.80199 17.3121 6.68204C17.1798 6.56664 17.1182 6.53393 17.0862 6.52069ZM16.8582 11.5874L14.1035 8.83276L6.84157 16.0947C6.79537 16.1409 6.77262 16.1638 6.75653 16.1809L6.75532 16.1821L6.75498 16.1839C6.75042 16.2069 6.74503 16.2387 6.73429 16.3032L6.42461 18.1612C6.36314 18.5301 6.32462 18.7643 6.30873 18.9404C6.29582 19.0836 6.30433 19.1326 6.30558 19.1388C6.34358 19.2557 6.43525 19.3473 6.55217 19.3853C6.55832 19.3866 6.60736 19.3951 6.7505 19.3822C6.92663 19.3663 7.16085 19.3278 7.52968 19.2663L9.38777 18.9566C9.45222 18.9459 9.48401 18.9405 9.50706 18.9359L9.50878 18.9356L9.51006 18.9344C9.52717 18.9183 9.55002 18.8956 9.59623 18.8493L16.8582 11.5874Z" fill="#FAFAFA"/>
<path fill-rule="evenodd" clip-rule="evenodd" d="M15.8719 5.00897C16.4612 4.76491 17.1232 4.76491 17.7124 5.00897C17.977 5.11856 18.1925 5.27865 18.3877 5.44897C18.5721 5.60978 18.7797 5.81737 19.0162 6.05396L19.637 6.67473C19.8736 6.91131 20.0812 7.11889 20.242 7.30325C20.4123 7.49852 20.5724 7.71401 20.682 7.97859C20.9261 8.5678 20.9261 9.22982 20.682 9.81903C20.5724 10.0836 20.4123 10.2991 20.242 10.4944C20.0812 10.6787 19.8737 10.8862 19.6371 11.1228L10.7533 20.0066L10.7338 20.0261C10.6675 20.0927 10.5785 20.1819 10.4736 20.2585C10.3367 20.3584 10.1851 20.4364 10.0242 20.4898C9.90092 20.5307 9.77659 20.5512 9.68388 20.5664L9.6567 20.5709L7.76813 20.8857C7.43698 20.9409 7.142 20.9901 6.89746 21.0121C6.64302 21.0351 6.3509 21.0394 6.05417 20.9443C5.43277 20.7452 4.94578 20.2582 4.74664 19.6368C4.65155 19.3401 4.65588 19.048 4.67883 18.7935C4.7009 18.5489 4.75008 18.2539 4.80529 17.9227L4.80585 17.9194L5.12004 16.0343L5.12453 16.0071C5.13981 15.9144 5.16031 15.7901 5.20119 15.6668C5.25454 15.5059 5.33257 15.3543 5.43248 15.2173C5.50902 15.1124 5.59828 15.0235 5.66484 14.9572L5.68435 14.9377L14.5681 6.05393C14.8047 5.81735 15.0123 5.60977 15.1966 5.44897C15.3919 5.27865 15.6074 5.11856 15.8719 5.00897ZM17.6358 5.19375C17.0956 4.96999 16.4887 4.96999 15.9485 5.19375C15.7123 5.29158 15.5156 5.43613 15.3281 5.59969C15.1494 5.75552 14.9465 5.95839 14.7074 6.1975L5.82577 15.0791L5.8077 15.0972C5.73985 15.1648 5.66066 15.2439 5.59405 15.3352C5.50635 15.4554 5.43786 15.5885 5.39102 15.7297C5.35545 15.837 5.33706 15.9475 5.32148 16.042L5.31732 16.0672L5.00313 17.9523C4.94726 18.2874 4.89934 18.5752 4.87802 18.8115C4.85597 19.0559 4.85408 19.3167 4.9371 19.5758C5.11653 20.1357 5.55531 20.5744 6.11521 20.7539C6.37428 20.8369 6.63504 20.835 6.87948 20.813C7.11573 20.7916 7.40354 20.7437 7.73867 20.6879L9.62383 20.3737L9.64899 20.3695C9.7435 20.3539 9.85396 20.3355 9.96124 20.3C10.1025 20.2531 10.2356 20.1846 10.3558 20.0969C10.447 20.0303 10.5262 19.9511 10.5938 19.8833L10.6118 19.8652L19.4935 10.9836C19.7326 10.7445 19.9355 10.5416 20.0913 10.3629C20.2548 10.1754 20.3994 9.97868 20.4972 9.74249C20.721 9.20229 20.721 8.59533 20.4972 8.05513C20.3994 7.81894 20.2548 7.62224 20.0913 7.43472C19.9355 7.25607 19.7326 7.05315 19.4935 6.81405L18.8769 6.19746C18.6378 5.95837 18.4349 5.75551 18.2563 5.59969C18.0687 5.43613 17.872 5.29158 17.6358 5.19375ZM17.0479 6.61322C16.8841 6.5454 16.7002 6.5454 16.5364 6.61322C16.5188 6.62055 16.4666 6.64543 16.338 6.75755C16.2037 6.87472 16.038 7.03974 15.7765 7.30128L15.3313 7.74649L17.9445 10.3597L18.3897 9.91452C18.6512 9.65298 18.8163 9.48729 18.9334 9.35295C19.0455 9.22442 19.0704 9.17221 19.0778 9.15452C19.1456 8.99079 19.1456 8.80683 19.0778 8.6431C19.0704 8.6254 19.0455 8.5732 18.9334 8.44466C18.8163 8.31033 18.6512 8.14465 18.3897 7.8831L17.8079 7.30128C17.5463 7.03974 17.3806 6.87472 17.2463 6.75755C17.1178 6.64543 17.0656 6.62055 17.0479 6.61322ZM17.1244 6.42845C17.1707 6.4476 17.2417 6.48814 17.3778 6.60683C17.5185 6.72955 17.6898 6.90034 17.9493 7.15986L18.5311 7.74168C18.7906 8.00121 18.9614 8.17251 19.0841 8.3132C19.2028 8.44926 19.2434 8.52031 19.2625 8.56656C19.3506 8.77929 19.3506 9.01832 19.2625 9.23106C19.2434 9.27731 19.2028 9.34836 19.0841 9.48442C18.9614 9.62511 18.7906 9.79641 18.5311 10.0559L18.0152 10.5719C17.9761 10.6109 17.9128 10.6109 17.8738 10.5719L15.1191 7.8172C15.0801 7.77814 15.0801 7.71483 15.1191 7.67578L15.635 7.15986C15.8946 6.90033 16.0659 6.72955 16.2066 6.60683C16.3426 6.48814 16.4137 6.4476 16.4599 6.42845C16.6727 6.34033 16.9117 6.34033 17.1244 6.42845ZM14.0327 8.7622C14.0718 8.72314 14.1351 8.72314 14.1741 8.7622L16.9288 11.5169C16.9475 11.5356 16.9581 11.561 16.9581 11.5876C16.9581 11.6141 16.9475 11.6395 16.9288 11.6583L9.66685 18.9202C9.6211 18.966 9.59697 18.99 9.57849 19.0074L9.57713 19.0086C9.5635 19.0214 9.54655 19.0302 9.52821 19.0338L9.52649 19.0342C9.50159 19.0391 9.46793 19.0448 9.40412 19.0554L7.54603 19.3651C7.17881 19.4263 6.94018 19.4656 6.7594 19.4819C6.61171 19.4953 6.55173 19.4875 6.532 19.4834L6.52099 19.4812C6.37362 19.4333 6.25828 19.3172 6.21039 19.1698L6.20692 19.1591C6.20287 19.1394 6.19572 19.0793 6.20905 18.9316C6.22536 18.7508 6.26468 18.5122 6.32588 18.1449L6.63556 16.2869C6.6462 16.223 6.65186 16.1895 6.6568 16.1646L6.65716 16.1627C6.66082 16.1444 6.66954 16.1275 6.68233 16.1138L6.68353 16.1126C6.70092 16.0941 6.72502 16.0699 6.77077 16.0241L14.0327 8.7622ZM14.1034 8.97433L6.91219 16.1656C6.88185 16.1959 6.86217 16.2156 6.84804 16.23C6.84452 16.2499 6.83989 16.2774 6.83284 16.3197L6.52316 18.1778C6.46142 18.5483 6.42371 18.7781 6.40824 18.9495C6.39876 19.0546 6.40178 19.1019 6.40313 19.1154C6.43175 19.1959 6.49509 19.2592 6.57554 19.2878C6.58905 19.2892 6.63636 19.2922 6.74142 19.2827C6.91291 19.2673 7.1427 19.2296 7.51315 19.1678L9.37124 18.8581C9.41356 18.8511 9.44105 18.8465 9.46093 18.8429C9.47535 18.8288 9.49509 18.8091 9.52542 18.7788L16.7166 11.5876L14.1034 8.97433Z" fill="#FAFAFA"/>
</svg>
