<svg width="33" height="33" viewBox="0 0 33 33" fill="none" xmlns="http://www.w3.org/2000/svg">
<path d="M0.938965 4.40869C0.938965 2.19955 2.72983 0.408691 4.93896 0.408691H28.939C31.1481 0.408691 32.939 2.19955 32.939 4.40869V28.4087C32.939 30.6178 31.1481 32.4087 28.939 32.4087H4.93896C2.72983 32.4087 0.938965 30.6178 0.938965 28.4087V4.40869Z" fill="black" fill-opacity="0.5"/>
<path fill-rule="evenodd" clip-rule="evenodd" d="M20.0841 8.58412C20.6488 8.35021 21.2833 8.35021 21.848 8.58412C22.0984 8.68783 22.3045 8.84015 22.4959 9.0071C22.6777 9.16565 22.8833 9.37124 23.1215 9.60952L23.7381 10.2261C23.9764 10.4644 24.182 10.67 24.3406 10.8517C24.5075 11.0431 24.6598 11.2492 24.7635 11.4996C24.9974 12.0643 24.9974 12.6988 24.7635 13.2635C24.6598 13.5139 24.5075 13.72 24.3406 13.9114C24.182 14.0932 23.9764 14.2988 23.7381 14.5371L14.8565 23.4187C14.8507 23.4245 14.8447 23.4305 14.8386 23.4366C14.7715 23.5039 14.6872 23.5886 14.5886 23.6605C14.46 23.7543 14.3177 23.8275 14.1666 23.8776C14.0508 23.916 13.9329 23.9355 13.8392 23.9509C13.8306 23.9523 13.8223 23.9537 13.8142 23.9551L11.929 24.2693C11.5952 24.3249 11.3032 24.3736 11.0624 24.3953C10.8129 24.4178 10.5365 24.4209 10.2586 24.3319C9.66796 24.1426 9.20508 23.6797 9.01579 23.089C8.92673 22.8111 8.92984 22.5347 8.95235 22.2853C8.97407 22.0444 9.02275 21.7524 9.07841 21.4186L9.39259 19.5335C9.39395 19.5254 9.39532 19.517 9.39673 19.5085C9.41218 19.4147 9.43163 19.2968 9.47002 19.181C9.52012 19.03 9.59338 18.8876 9.68718 18.759C9.75908 18.6605 9.84374 18.5761 9.91103 18.5091C9.91716 18.503 9.92315 18.497 9.92898 18.4912L18.8106 9.60956C19.0489 9.37126 19.2545 9.16565 19.4363 9.0071C19.6276 8.84015 19.8337 8.68783 20.0841 8.58412ZM21.2601 10.0036C21.0718 9.92563 20.8603 9.92563 20.6721 10.0036C20.6401 10.0168 20.5785 10.0496 20.4462 10.165C20.3087 10.2849 20.1402 10.4528 19.8797 10.7133L19.3637 11.2293L22.1184 13.9839L22.6343 13.468C22.8949 13.2075 23.0628 13.039 23.1827 12.9015C23.2981 12.7692 23.3308 12.7075 23.3441 12.6756C23.422 12.4873 23.422 12.2758 23.3441 12.0876C23.3308 12.0556 23.2981 11.994 23.1827 11.8617C23.0628 11.7242 22.8949 11.5557 22.6343 11.2952L22.0525 10.7133C21.792 10.4528 21.6235 10.2849 21.486 10.165C21.3537 10.0496 21.292 10.0168 21.2601 10.0036ZM21.032 15.0703L18.2773 12.3157L11.0154 19.5776C10.9692 19.6238 10.9465 19.6467 10.9304 19.6638L10.9292 19.6651L10.9288 19.6668C10.9242 19.6898 10.9189 19.7216 10.9081 19.7861L10.5984 21.6441C10.537 22.013 10.4985 22.2472 10.4826 22.4233C10.4696 22.5665 10.4782 22.6155 10.4794 22.6217C10.5174 22.7386 10.6091 22.8303 10.726 22.8682C10.7322 22.8695 10.7812 22.878 10.9243 22.8651C11.1005 22.8492 11.3347 22.8107 11.7035 22.7492L13.5616 22.4395C13.626 22.4288 13.6578 22.4234 13.6809 22.4188L13.6826 22.4185L13.6839 22.4173C13.701 22.4012 13.7239 22.3785 13.7701 22.3323L21.032 15.0703Z" fill="#ABF066"/>
<path fill-rule="evenodd" clip-rule="evenodd" d="M20.0458 8.49176C20.635 8.2477 21.297 8.2477 21.8862 8.49176C22.1508 8.60135 22.3663 8.76144 22.5616 8.93176C22.7459 9.09257 22.9535 9.30015 23.1901 9.53674L23.8108 10.1575C24.0474 10.3941 24.255 10.6017 24.4158 10.786C24.5862 10.9813 24.7462 11.1968 24.8558 11.4614C25.0999 12.0506 25.0999 12.7126 24.8558 13.3018C24.7462 13.5664 24.5862 13.7819 24.4158 13.9772C24.255 14.1615 24.0475 14.369 23.8109 14.6056L14.9271 23.4894L14.9076 23.5089C14.8413 23.5755 14.7524 23.6647 14.6475 23.7413C14.5105 23.8412 14.3589 23.9192 14.198 23.9726C14.0748 24.0135 13.9504 24.0339 13.8577 24.0492L13.8305 24.0537L11.942 24.3685C11.6108 24.4237 11.3158 24.4729 11.0713 24.4949C10.8168 24.5179 10.5247 24.5222 10.228 24.4271C9.60659 24.228 9.11961 23.741 8.92047 23.1196C8.82538 22.8229 8.8297 22.5307 8.85266 22.2763C8.87473 22.0317 8.92391 21.7367 8.97912 21.4055L8.97968 21.4022L9.29386 19.5171L9.29836 19.4899C9.31364 19.3972 9.33414 19.2728 9.37502 19.1496C9.42837 18.9887 9.5064 18.8371 9.60631 18.7001C9.68285 18.5952 9.77211 18.5063 9.83866 18.44L9.85817 18.4205L18.742 9.53671C18.9785 9.30014 19.1861 9.09256 19.3704 8.93176C19.5657 8.76144 19.7812 8.60135 20.0458 8.49176ZM21.8097 8.67653C21.2695 8.45278 20.6625 8.45278 20.1223 8.67653C19.8861 8.77437 19.6894 8.91892 19.5019 9.08248C19.3232 9.23831 19.1203 9.44118 18.8812 9.68029L9.9996 18.5619L9.98153 18.5799C9.91368 18.6476 9.83448 18.7267 9.76787 18.818C9.68018 18.9382 9.61168 19.0713 9.56485 19.2125C9.52928 19.3198 9.51089 19.4303 9.49531 19.5248L9.49114 19.5499L9.17696 21.4351C9.12109 21.7702 9.07317 22.058 9.05185 22.2943C9.0298 22.5387 9.02791 22.7995 9.11093 23.0586C9.29036 23.6185 9.72914 24.0572 10.289 24.2367C10.5481 24.3197 10.8089 24.3178 11.0533 24.2957C11.2896 24.2744 11.5774 24.2265 11.9125 24.1706L13.7977 23.8564L13.8228 23.8523C13.9173 23.8367 14.0278 23.8183 14.1351 23.7827C14.2763 23.7359 14.4094 23.6674 14.5296 23.5797C14.6209 23.5131 14.7 23.4339 14.7676 23.3661L14.7857 23.348L23.6673 14.4664C23.9064 14.2273 24.1093 14.0243 24.2651 13.8457C24.4287 13.6582 24.5732 13.4615 24.6711 13.2253C24.8948 12.6851 24.8948 12.0781 24.6711 11.5379C24.5732 11.3017 24.4287 11.105 24.2651 10.9175C24.1093 10.7389 23.9064 10.5359 23.6673 10.2968L23.0507 9.68025C22.8116 9.44116 22.6087 9.2383 22.4301 9.08248C22.2426 8.91892 22.0459 8.77437 21.8097 8.67653ZM21.2217 10.096C21.058 10.0282 20.874 10.0282 20.7103 10.096C20.6926 10.1033 20.6404 10.1282 20.5118 10.2403C20.3775 10.3575 20.2118 10.5225 19.9503 10.7841L19.5051 11.2293L22.1183 13.8425L22.5635 13.3973C22.8251 13.1358 22.9901 12.9701 23.1073 12.8357C23.2194 12.7072 23.2443 12.655 23.2516 12.6373C23.3194 12.4736 23.3194 12.2896 23.2516 12.1259C23.2443 12.1082 23.2194 12.056 23.1073 11.9275C22.9901 11.7931 22.8251 11.6274 22.5635 11.3659L21.9817 10.7841C21.7202 10.5225 21.5545 10.3575 21.4201 10.2403C21.2916 10.1282 21.2394 10.1033 21.2217 10.096ZM21.2982 9.91124C21.3445 9.93039 21.4155 9.97093 21.5516 10.0896C21.6923 10.2123 21.8636 10.3831 22.1231 10.6427L22.7049 11.2245C22.9645 11.484 23.1353 11.6553 23.258 11.796C23.3767 11.9321 23.4172 12.0031 23.4364 12.0493C23.5245 12.2621 23.5245 12.5011 23.4364 12.7138C23.4172 12.7601 23.3767 12.8311 23.258 12.9672C23.1353 13.1079 22.9645 13.2792 22.7049 13.5387L22.189 14.0546C22.15 14.0937 22.0867 14.0937 22.0476 14.0546L19.2929 11.3C19.2539 11.2609 19.2539 11.1976 19.2929 11.1586L19.8089 10.6427C20.0684 10.3831 20.2397 10.2123 20.3804 10.0896C20.5164 9.97093 20.5875 9.93039 20.6337 9.91124C20.8465 9.82312 21.0855 9.82312 21.2982 9.91124ZM18.2065 12.245C18.2456 12.2059 18.3089 12.2059 18.3479 12.245L21.1026 14.9996C21.1214 15.0184 21.1319 15.0438 21.1319 15.0704C21.1319 15.0969 21.1214 15.1223 21.1026 15.1411L13.8407 22.403C13.7949 22.4487 13.7708 22.4728 13.7523 22.4902L13.751 22.4914C13.7373 22.5042 13.7204 22.513 13.702 22.5166L13.7003 22.5169C13.6754 22.5219 13.6418 22.5276 13.5779 22.5382L11.7199 22.8479C11.3526 22.9091 11.114 22.9484 10.9332 22.9647C10.7855 22.978 10.7256 22.9703 10.7058 22.9662L10.6948 22.964C10.5474 22.9161 10.4321 22.8 10.3842 22.6526L10.3807 22.6419C10.3767 22.6222 10.3695 22.5621 10.3829 22.4144C10.3992 22.2336 10.4385 21.995 10.4997 21.6277L10.8094 19.7696C10.82 19.7058 10.8257 19.6723 10.8306 19.6474L10.831 19.6455C10.8346 19.6272 10.8434 19.6103 10.8562 19.5966L10.8574 19.5953C10.8748 19.5769 10.8989 19.5527 10.9446 19.5069L18.2065 12.245ZM18.2772 12.4571L11.086 19.6483C11.0557 19.6787 11.036 19.6984 11.0219 19.7128C11.0183 19.7327 11.0137 19.7602 11.0067 19.8025L10.697 21.6606C10.6352 22.0311 10.5975 22.2609 10.5821 22.4323C10.5726 22.5374 10.5756 22.5847 10.577 22.5982C10.6056 22.6787 10.6689 22.742 10.7494 22.7706C10.7629 22.772 10.8102 22.775 10.9153 22.7655C11.0867 22.7501 11.3165 22.7123 11.687 22.6506L13.5451 22.3409C13.5874 22.3339 13.6149 22.3292 13.6348 22.3257C13.6492 22.3116 13.6689 22.2919 13.6993 22.2616L20.8905 15.0704L18.2772 12.4571Z" fill="#ABF066"/>
</svg>
