<svg width="33" height="33" viewBox="0 0 33 33" fill="none" xmlns="http://www.w3.org/2000/svg">
<path d="M0.288086 4.70312C0.288086 2.49399 2.07895 0.703125 4.28809 0.703125H28.2881C30.4972 0.703125 32.2881 2.49399 32.2881 4.70312V28.7031C32.2881 30.9123 30.4972 32.7031 28.2881 32.7031H4.28809C2.07895 32.7031 0.288086 30.9123 0.288086 28.7031V4.70312Z" fill="black" fill-opacity="0.5"/>
<path fill-rule="evenodd" clip-rule="evenodd" d="M19.4333 8.87856C19.998 8.64465 20.6325 8.64465 21.1972 8.87856C21.4475 8.98227 21.6536 9.13459 21.845 9.30153C22.0268 9.46008 22.2324 9.66568 22.4706 9.90395L23.0872 10.5205C23.3255 10.7588 23.5311 10.9644 23.6897 11.1462C23.8566 11.3376 24.0089 11.5437 24.1127 11.7941C24.3466 12.3588 24.3466 12.9933 24.1127 13.558C24.0089 13.8083 23.8566 14.0144 23.6897 14.2058C23.5311 14.3876 23.3255 14.5932 23.0872 14.8315L14.2056 23.7131C14.1998 23.7189 14.1938 23.7249 14.1877 23.7311C14.1206 23.7983 14.0363 23.883 13.9377 23.9549C13.8092 24.0487 13.6668 24.122 13.5158 24.1721C13.4 24.2105 13.282 24.2299 13.1883 24.2454C13.1798 24.2468 13.1714 24.2481 13.1633 24.2495L11.2782 24.5637C10.9443 24.6193 10.6523 24.668 10.4115 24.6897C10.1621 24.7122 9.88563 24.7154 9.60773 24.6263C9.01708 24.437 8.5542 23.9741 8.36491 23.3835C8.27586 23.1056 8.27896 22.8291 8.30147 22.5797C8.3232 22.3389 8.37187 22.0469 8.42753 21.713L8.74172 19.8279C8.74307 19.8198 8.74444 19.8114 8.74585 19.8029C8.76131 19.7092 8.78075 19.5912 8.81915 19.4755C8.86924 19.3244 8.9425 19.182 9.0363 19.0535C9.1082 18.9549 9.19286 18.8706 9.26015 18.8035C9.26629 18.7974 9.27228 18.7914 9.2781 18.7856L18.1597 9.90399C18.398 9.6657 18.6036 9.46009 18.7854 9.30153C18.9768 9.13459 19.1829 8.98227 19.4333 8.87856ZM20.6092 10.298C20.421 10.2201 20.2095 10.2201 20.0212 10.298C19.9893 10.3113 19.9276 10.344 19.7953 10.4594C19.6578 10.5793 19.4893 10.7472 19.2288 11.0078L18.7129 11.5237L21.4675 14.2783L21.9834 13.7624C22.244 13.5019 22.4119 13.3334 22.5318 13.1959C22.6472 13.0636 22.6799 13.002 22.6932 12.97C22.7711 12.7818 22.7711 12.5703 22.6932 12.382C22.6799 12.3501 22.6472 12.2884 22.5318 12.1561C22.4119 12.0186 22.244 11.8501 21.9834 11.5896L21.4016 11.0078C21.1411 10.7472 20.9726 10.5793 20.8351 10.4594C20.7028 10.344 20.6412 10.3113 20.6092 10.298ZM20.3811 15.3648L17.6265 12.6101L10.3645 19.872C10.3183 19.9182 10.2956 19.9411 10.2795 19.9582L10.2783 19.9595L10.2779 19.9612C10.2734 19.9843 10.268 20.016 10.2572 20.0805L9.94756 21.9386C9.88609 22.3074 9.84757 22.5416 9.83168 22.7178C9.81876 22.8609 9.82728 22.91 9.82853 22.9161C9.86653 23.033 9.9582 23.1247 10.0751 23.1627C10.0813 23.1639 10.1303 23.1724 10.2735 23.1595C10.4496 23.1436 10.6838 23.1051 11.0526 23.0436L12.9107 22.734C12.9752 22.7232 13.007 22.7178 13.03 22.7133L13.0317 22.7129L13.033 22.7117C13.0501 22.6956 13.073 22.6729 13.1192 22.6267L20.3811 15.3648Z" fill="#FAFAFA"/>
<path fill-rule="evenodd" clip-rule="evenodd" d="M19.3949 8.78619C19.9841 8.54214 20.6461 8.54214 21.2353 8.78619C21.4999 8.89578 21.7154 9.05587 21.9107 9.22619C22.095 9.387 22.3026 9.59459 22.5392 9.83118L23.1599 10.4519C23.3965 10.6885 23.6041 10.8961 23.765 11.0805C23.9353 11.2757 24.0954 11.4912 24.205 11.7558C24.449 12.345 24.449 13.007 24.205 13.5962C24.0954 13.8608 23.9353 14.0763 23.765 14.2716C23.6042 14.4559 23.3966 14.6635 23.1601 14.9L14.2762 23.7839L14.2568 23.8034C14.1904 23.8699 14.1015 23.9592 13.9966 24.0357C13.8597 24.1356 13.708 24.2137 13.5471 24.267C13.4239 24.3079 13.2995 24.3284 13.2068 24.3437L13.1796 24.3482L11.2911 24.6629C10.9599 24.7181 10.665 24.7673 10.4204 24.7894C10.166 24.8123 9.87385 24.8166 9.57712 24.7216C8.95571 24.5224 8.46873 24.0354 8.26959 23.414C8.1745 23.1173 8.17883 22.8252 8.20178 22.5707C8.22385 22.3262 8.27303 22.0312 8.32824 21.7L8.3288 21.6966L8.64299 19.8115L8.64748 19.7843C8.66276 19.6916 8.68326 19.5673 8.72414 19.444C8.77749 19.2831 8.85552 19.1315 8.95543 18.9946C9.03197 18.8897 9.12123 18.8007 9.18779 18.7344L9.20729 18.7149L18.0911 9.83115C18.3276 9.59457 18.5352 9.38699 18.7196 9.22619C18.9148 9.05587 19.1303 8.89578 19.3949 8.78619ZM21.1588 8.97097C20.6186 8.74721 20.0116 8.74721 19.4714 8.97097C19.2352 9.0688 19.0385 9.21335 18.851 9.37691C18.6724 9.53274 18.4694 9.73561 18.2303 9.97472L9.34872 18.8564L9.33065 18.8744C9.2628 18.942 9.18361 19.0212 9.117 19.1124C9.0293 19.2326 8.96081 19.3657 8.91397 19.507C8.8784 19.6142 8.86001 19.7247 8.84443 19.8192L8.84026 19.8444L8.52608 21.7295C8.47021 22.0646 8.42229 22.3525 8.40097 22.5887C8.37892 22.8332 8.37703 23.0939 8.46005 23.353C8.63948 23.9129 9.07826 24.3517 9.63816 24.5311C9.89723 24.6141 10.158 24.6122 10.4024 24.5902C10.6387 24.5689 10.9265 24.5209 11.2616 24.4651L13.1468 24.1509L13.1719 24.1467C13.2664 24.1311 13.3769 24.1127 13.4842 24.0772C13.6254 24.0303 13.7585 23.9618 13.8787 23.8741C13.97 23.8075 14.0492 23.7283 14.1168 23.6605L14.1348 23.6424L23.0164 14.7608C23.2555 14.5217 23.4584 14.3188 23.6142 14.1401C23.7778 13.9526 23.9223 13.7559 24.0202 13.5197C24.2439 12.9795 24.2439 12.3725 24.0202 11.8323C23.9223 11.5962 23.7778 11.3995 23.6142 11.2119C23.4584 11.0333 23.2555 10.8304 23.0164 10.5913L22.3998 9.97469C22.1608 9.73559 21.9578 9.53273 21.7792 9.37691C21.5917 9.21335 21.395 9.0688 21.1588 8.97097ZM20.5708 10.3904C20.4071 10.3226 20.2231 10.3226 20.0594 10.3904C20.0417 10.3978 19.9895 10.4227 19.861 10.5348C19.7266 10.6519 19.5609 10.817 19.2994 11.0785L18.8542 11.5237L21.4674 14.1369L21.9126 13.6917C22.1742 13.4302 22.3392 13.2645 22.4564 13.1302C22.5685 13.0016 22.5934 12.9494 22.6007 12.9317C22.6685 12.768 22.6685 12.584 22.6007 12.4203C22.5934 12.4026 22.5685 12.3504 22.4564 12.2219C22.3392 12.0876 22.1742 11.9219 21.9126 11.6603L21.3308 11.0785C21.0693 10.817 20.9036 10.6519 20.7693 10.5348C20.6407 10.4227 20.5885 10.3978 20.5708 10.3904ZM20.6474 10.2057C20.6936 10.2248 20.7647 10.2654 20.9007 10.384C21.0414 10.5068 21.2127 10.6776 21.4722 10.9371L22.0541 11.5189C22.3136 11.7784 22.4844 11.9497 22.6071 12.0904C22.7258 12.2265 22.7663 12.2975 22.7855 12.3438C22.8736 12.5565 22.8736 12.7955 22.7855 13.0083C22.7663 13.0545 22.7258 13.1256 22.6071 13.2616C22.4844 13.4023 22.3136 13.5736 22.0541 13.8332L21.5381 14.3491C21.4991 14.3881 21.4358 14.3881 21.3967 14.3491L18.6421 11.5944C18.603 11.5554 18.603 11.4921 18.6421 11.453L19.158 10.9371C19.4175 10.6776 19.5888 10.5068 19.7295 10.384C19.8656 10.2654 19.9366 10.2248 19.9829 10.2057C20.1956 10.1176 20.4346 10.1176 20.6474 10.2057ZM17.5556 12.5394C17.5947 12.5004 17.658 12.5004 17.6971 12.5394L20.4517 15.2941C20.4705 15.3128 20.481 15.3383 20.481 15.3648C20.481 15.3913 20.4705 15.4167 20.4517 15.4355L13.1898 22.6974C13.1441 22.7432 13.1199 22.7672 13.1014 22.7846L13.1001 22.7859C13.0864 22.7987 13.0695 22.8074 13.0512 22.811L13.0494 22.8114C13.0245 22.8163 12.9909 22.822 12.9271 22.8326L11.069 23.1423C10.7018 23.2035 10.4631 23.2428 10.2823 23.2591C10.1347 23.2725 10.0747 23.2647 10.055 23.2607L10.0439 23.2584C9.89657 23.2105 9.78122 23.0944 9.73334 22.947L9.72987 22.9363C9.72582 22.9166 9.71867 22.8565 9.732 22.7088C9.74831 22.528 9.78763 22.2894 9.84883 21.9222L10.1585 20.0641C10.1691 20.0003 10.1748 19.9667 10.1797 19.9418L10.1801 19.94C10.1838 19.9216 10.1925 19.9047 10.2053 19.8911L10.2065 19.8898C10.2239 19.8713 10.248 19.8471 10.2937 19.8013L17.5556 12.5394ZM17.6264 12.7516L10.4351 19.9428C10.4048 19.9731 10.3851 19.9928 10.371 20.0073C10.3675 20.0272 10.3628 20.0546 10.3558 20.097L10.0461 21.955C9.98437 22.3255 9.94666 22.5553 9.93119 22.7268C9.92171 22.8319 9.92473 22.8792 9.92608 22.8927C9.9547 22.9731 10.018 23.0364 10.0985 23.0651C10.112 23.0664 10.1593 23.0694 10.2644 23.06C10.4359 23.0445 10.6657 23.0068 11.0361 22.945L12.8942 22.6354C12.9365 22.6283 12.964 22.6237 12.9839 22.6202C12.9983 22.606 13.018 22.5863 13.0484 22.556L20.2396 15.3648L17.6264 12.7516Z" fill="#FAFAFA"/>
</svg>
