<svg width="25" height="24" viewBox="0 0 25 24" fill="none" xmlns="http://www.w3.org/2000/svg">
<path d="M19.9922 13V11C19.9922 9.11438 19.9922 8.17157 19.4064 7.58579C18.8206 7 17.8778 7 15.9922 7H14.649C13.8315 7 13.4228 7 13.0552 6.84776C12.6877 6.69552 12.3987 6.40649 11.8206 5.82843L11.1638 5.17157C10.5857 4.59351 10.2967 4.30448 9.92913 4.15224C9.56159 4 9.15283 4 8.33533 4H7.99219C6.10657 4 5.16376 4 4.57797 4.58579C3.99219 5.17157 3.99219 6.11438 3.99219 8V14C3.99219 15.8856 3.99219 16.8284 4.57797 17.4142C5.16376 18 6.10657 18 7.99219 18H14.9922" stroke="#FAFAFA" stroke-width="2" stroke-linecap="round"/>
<path d="M18.1445 18H20.1445M20.1445 18H22.1445M20.1445 18V20M20.1445 18V16" stroke="#FAFAFA" stroke-width="2" stroke-linecap="round"/>
</svg>
