<svg width="19" height="19" viewBox="0 0 19 19" fill="none" xmlns="http://www.w3.org/2000/svg">
<g clip-path="url(#clip0_807_14918)">
<path fill-rule="evenodd" clip-rule="evenodd" d="M18.1498 10.1817C18.1498 9.54355 18.0925 8.92991 17.9861 8.34082H9.50977V11.8222H14.3534C14.1448 12.9472 13.5107 13.9004 12.5575 14.5385V16.7967H15.4661C17.1679 15.2299 18.1498 12.9226 18.1498 10.1817Z" fill="#4285F4"/>
<path fill-rule="evenodd" clip-rule="evenodd" d="M9.50952 18.977C11.9395 18.977 13.9768 18.1711 15.4659 16.7966L12.5573 14.5384C11.7513 15.0784 10.7204 15.3975 9.50952 15.3975C7.16543 15.3975 5.18134 13.8143 4.47362 11.687H1.4668V14.0188C2.94771 16.9602 5.99134 18.977 9.50952 18.977Z" fill="#34A853"/>
<path fill-rule="evenodd" clip-rule="evenodd" d="M4.47386 11.6869C4.29386 11.1469 4.19158 10.5701 4.19158 9.97688C4.19158 9.38369 4.29386 8.80688 4.47386 8.26688V5.93506H1.46704C0.857493 7.15006 0.509766 8.5246 0.509766 9.97688C0.509766 11.4291 0.857493 12.8037 1.46704 14.0187L4.47386 11.6869Z" fill="#FBBC05"/>
<path fill-rule="evenodd" clip-rule="evenodd" d="M9.50952 4.5566C10.8309 4.5566 12.0173 5.01069 12.95 5.90251L15.5313 3.32114C13.9727 1.86887 11.9354 0.977051 9.50952 0.977051C5.99134 0.977051 2.94771 2.99387 1.4668 5.93523L4.47362 8.26705C5.18134 6.13978 7.16543 4.5566 9.50952 4.5566Z" fill="#EA4335"/>
</g>
<defs>
<clipPath id="clip0_807_14918">
<rect width="18" height="18" fill="white" transform="translate(0.509766 0.977051)"/>
</clipPath>
</defs>
</svg>
