<svg width="current" height="current" viewBox="0 0 25 24" fill="none" xmlns="http://www.w3.org/2000/svg">
<path fill-rule="evenodd" clip-rule="evenodd" d="M20.472 2C20.3807 2 20.2903 2.01808 20.206 2.05319C20.1218 2.08829 20.0453 2.13974 19.981 2.20457L19.977 2.20853L8.82121 13.3315L8.25758 16.7585L11.6293 16.1515L22.7579 4.98951L22.7618 4.98557C22.8266 4.92128 22.8781 4.84479 22.9132 4.7605C22.9483 4.67622 22.9664 4.58582 22.9664 4.49452C22.9664 4.40321 22.9483 4.31281 22.9132 4.22853C22.8781 4.14425 22.8266 4.06776 22.7618 4.00347L22.7589 4.00057L20.9659 2.20747L20.963 2.20457C20.8987 2.13974 20.8222 2.08829 20.7379 2.05319C20.6536 2.01808 20.5633 2 20.472 2ZM19.4369 0.207007C19.7648 0.0703557 20.1166 0 20.472 0C20.8273 0 21.1791 0.0703552 21.5071 0.207007C21.8344 0.343367 22.1315 0.543046 22.3814 0.794566L22.383 0.796183L24.1702 2.58349L24.1719 2.58512C24.4234 2.835 24.623 3.13212 24.7594 3.4594C24.896 3.78739 24.9664 4.1392 24.9664 4.49452C24.9664 4.84984 24.896 5.20164 24.7594 5.52964C24.6231 5.8567 24.4236 6.15364 24.1724 6.40343L24.1702 6.40555L12.8239 17.7861C12.6795 17.9309 12.4941 18.028 12.2928 18.0643L7.21817 18.9777C6.89845 19.0353 6.5707 18.9339 6.33926 18.706C6.10783 18.478 6.00155 18.1518 6.05427 17.8312L6.90005 12.6888C6.93408 12.4819 7.03226 12.2909 7.18073 12.1429L18.561 0.796183L18.5631 0.793988C18.8129 0.54274 19.1098 0.343262 19.4369 0.207007ZM0.966797 23C0.966797 22.4477 1.41451 22 1.9668 22H20.5739C21.1262 22 21.5739 22.4477 21.5739 23C21.5739 23.5523 21.1262 24 20.5739 24H1.9668C1.41451 24 0.966797 23.5523 0.966797 23Z" fill="#212121"/>
</svg>
