<svg width="25" height="25" viewBox="0 0 25 25" fill="none" xmlns="http://www.w3.org/2000/svg">
<path d="M19.0918 13.9492V11.9492C19.0918 10.0636 19.0918 9.12079 18.506 8.53501C17.9202 7.94922 16.9774 7.94922 15.0918 7.94922H13.7487C12.9311 7.94922 12.5224 7.94922 12.1549 7.79698C11.7873 7.64474 11.4983 7.35571 10.9202 6.77765L10.2634 6.12079C9.68531 5.54273 9.39628 5.2537 9.02874 5.10146C8.66119 4.94922 8.25244 4.94922 7.43494 4.94922H7.0918C5.20618 4.94922 4.26337 4.94922 3.67758 5.53501C3.0918 6.12079 3.0918 7.0636 3.0918 8.94922V14.9492C3.0918 16.8348 3.0918 17.7776 3.67758 18.3634C4.26337 18.9492 5.20618 18.9492 7.0918 18.9492H14.0918" stroke="#FAFAFA" stroke-width="2" stroke-linecap="round"/>
<path d="M17.2441 18.9492H19.2441M19.2441 18.9492H21.2441M19.2441 18.9492V20.9492M19.2441 18.9492V16.9492" stroke="#FAFAFA" stroke-width="2" stroke-linecap="round"/>
</svg>
