<svg width="17" height="16" viewBox="0 0 17 16" fill="none" xmlns="http://www.w3.org/2000/svg">
<path fill-rule="evenodd" clip-rule="evenodd" d="M0.984299 0.72844C1.37482 0.337916 2.00799 0.337916 2.39851 0.72844L8.44141 6.77133L14.4843 0.72844C14.8748 0.337916 15.508 0.337916 15.8985 0.72844C16.289 1.11896 16.289 1.75213 15.8985 2.14265L9.85562 8.18555L15.8985 14.2284C16.289 14.619 16.289 15.2521 15.8985 15.6427C15.508 16.0332 14.8748 16.0332 14.4843 15.6427L8.44141 9.59976L2.39851 15.6427C2.00799 16.0332 1.37482 16.0332 0.984299 15.6427C0.593775 15.2521 0.593775 14.619 0.984299 14.2284L7.02719 8.18555L0.984299 2.14265C0.593775 1.75213 0.593775 1.11896 0.984299 0.72844Z" fill="#616161"/>
</svg>
