<svg width="24" height="25" viewBox="0 0 24 25" fill="none" xmlns="http://www.w3.org/2000/svg">
<mask id="mask0_1369_13630" style="mask-type:alpha" maskUnits="userSpaceOnUse" x="0" y="0" width="24" height="25">
<rect y="0.28186" width="24" height="24" fill="#D9D9D9"/>
</mask>
<g mask="url(#mask0_1369_13630)">
<path d="M4 18.2819C3.71667 18.2819 3.47933 18.1859 3.288 17.9939C3.096 17.8025 3 17.5652 3 17.2819C3 16.9985 3.096 16.7612 3.288 16.5699C3.47933 16.3779 3.71667 16.2819 4 16.2819H20C20.2833 16.2819 20.5207 16.3779 20.712 16.5699C20.904 16.7612 21 16.9985 21 17.2819C21 17.5652 20.904 17.8025 20.712 17.9939C20.5207 18.1859 20.2833 18.2819 20 18.2819H4ZM4 13.2819C3.71667 13.2819 3.47933 13.1859 3.288 12.9939C3.096 12.8025 3 12.5652 3 12.2819C3 11.9985 3.096 11.7609 3.288 11.5689C3.47933 11.3775 3.71667 11.2819 4 11.2819H20C20.2833 11.2819 20.5207 11.3775 20.712 11.5689C20.904 11.7609 21 11.9985 21 12.2819C21 12.5652 20.904 12.8025 20.712 12.9939C20.5207 13.1859 20.2833 13.2819 20 13.2819H4ZM4 8.28186C3.71667 8.28186 3.47933 8.18619 3.288 7.99486C3.096 7.80286 3 7.56519 3 7.28186C3 6.99853 3.096 6.76086 3.288 6.56886C3.47933 6.37753 3.71667 6.28186 4 6.28186H20C20.2833 6.28186 20.5207 6.37753 20.712 6.56886C20.904 6.76086 21 6.99853 21 7.28186C21 7.56519 20.904 7.80286 20.712 7.99486C20.5207 8.18619 20.2833 8.28186 20 8.28186H4Z" fill="#1C1B1F"/>
</g>
</svg>
