<svg width="current" height="current" viewBox="0 0 21 20" fill="none" xmlns="http://www.w3.org/2000/svg">
<path fill-rule="evenodd" clip-rule="evenodd" d="M15.2081 4.11943e-07H6.72552H6.72551C5.92054 -1.19578e-05 5.25619 -2.2167e-05 4.715 0.0441949C4.1529 0.0901201 3.63619 0.188684 3.15086 0.435975C2.39821 0.819469 1.78629 1.43139 1.4028 2.18404C1.1555 2.66937 1.05694 3.18608 1.01101 3.74818C0.966797 4.28936 0.966808 4.95372 0.966821 5.75867L0.966821 5.7587L0.966821 15.5L0.966809 15.5688C0.966701 15.9662 0.96662 16.2606 1.00104 16.5221C1.23735 18.317 2.64978 19.7295 4.44472 19.9658C4.70617 20.0002 5.00061 20.0001 5.39804 20L5.46682 20H15.2081C16.0131 20 16.6775 20 17.2186 19.9558C17.7807 19.9099 18.2974 19.8113 18.7828 19.564C19.5354 19.1805 20.1474 18.5686 20.5308 17.816C20.7781 17.3306 20.8767 16.8139 20.9226 16.2518C20.9668 15.7106 20.9668 15.0463 20.9668 14.2413V5.75868C20.9668 4.95372 20.9668 4.28936 20.9226 3.74818C20.8767 3.18608 20.7781 2.66937 20.5308 2.18404C20.1474 1.43139 19.5354 0.819469 18.7828 0.435975C18.2974 0.188684 17.7807 0.0901201 17.2186 0.0441949C16.6775 -2.21667e-05 16.0131 -1.19578e-05 15.2081 4.11943e-07H15.2081ZM4.05884 2.21799C4.21524 2.1383 4.43944 2.07337 4.87786 2.03755C5.32795 2.00078 5.91024 2 6.76682 2H15.1668C16.0234 2 16.6057 2.00078 17.0558 2.03755C17.4942 2.07337 17.7184 2.1383 17.8748 2.21799C18.2511 2.40973 18.5571 2.7157 18.7488 3.09202C18.8285 3.24842 18.8934 3.47262 18.9293 3.91104C18.966 4.36113 18.9668 4.94342 18.9668 5.8V10.5858L15.6739 7.29289C15.2834 6.90237 14.6502 6.90237 14.2597 7.29289L8.96682 12.5858L6.67393 10.2929C6.47918 10.0981 6.21274 9.99234 5.93745 10.0004C5.66215 10.0085 5.40239 10.1298 5.21941 10.3356L2.96682 12.8698V5.8C2.96682 4.94342 2.9676 4.36113 3.00437 3.91104C3.04019 3.47262 3.10512 3.24842 3.18481 3.09202C3.37655 2.7157 3.68252 2.40973 4.05884 2.21799ZM14.9668 9.41421L18.9668 13.4142V14.2C18.9668 15.0566 18.966 15.6389 18.9293 16.089C18.8934 16.5274 18.8285 16.7516 18.7488 16.908C18.5571 17.2843 18.2511 17.5903 17.8748 17.782C17.7184 17.8617 17.4942 17.9266 17.0558 17.9624C16.6057 17.9992 16.0234 18 15.1668 18H5.46682C4.97062 18 4.81935 17.9978 4.70577 17.9829C3.8083 17.8647 3.10209 17.1585 2.98393 16.2611C2.97374 16.1836 2.96949 16.0887 2.96782 15.8791L6.00964 12.457L8.25971 14.7071C8.65024 15.0976 9.2834 15.0976 9.67393 14.7071L14.9668 9.41421ZM6.96683 7.5C7.79525 7.5 8.46683 6.82843 8.46683 6C8.46683 5.17157 7.79525 4.5 6.96683 4.5C6.1384 4.5 5.46683 5.17157 5.46683 6C5.46683 6.82843 6.1384 7.5 6.96683 7.5Z" fill="#212121"/>
</svg>
