<svg width="current" height="current" viewBox="0 0 25 25" fill="none" xmlns="http://www.w3.org/2000/svg">
<path d="M7.0914 8.61688C7.40574 5.78778 9.79705 3.64746 12.6436 3.64746V3.64746C15.4901 3.64746 17.8814 5.78778 18.1957 8.61688L18.4475 10.8831C18.4507 10.912 18.4523 10.9264 18.454 10.9407C18.5829 12.0644 18.9487 13.148 19.5271 14.12C19.5345 14.1323 19.5419 14.1448 19.5569 14.1697L20.1349 15.1331C20.6595 16.0073 20.9218 16.4445 20.8651 16.8033C20.8275 17.0421 20.7046 17.2591 20.5192 17.4143C20.2406 17.6475 19.7309 17.6475 18.7113 17.6475H6.57579C5.55624 17.6475 5.04646 17.6475 4.76789 17.4143C4.58253 17.2591 4.45964 17.0421 4.42197 16.8033C4.36535 16.4445 4.62762 16.0073 5.15217 15.1331L5.73021 14.1697C5.74516 14.1448 5.75264 14.1323 5.76 14.12C6.33844 13.148 6.70419 12.0644 6.83314 10.9407C6.83478 10.9264 6.83639 10.912 6.8396 10.8831L7.0914 8.61688Z" stroke="#212121" stroke-width="2"/>
<path d="M9.74578 18.3121C9.9167 19.269 10.2933 20.1145 10.8173 20.7176C11.3412 21.3206 11.9832 21.6475 12.6436 21.6475C13.304 21.6475 13.9459 21.3206 14.4698 20.7176C14.9938 20.1145 15.3704 19.269 15.5413 18.3121" stroke="#212121" stroke-width="2" stroke-linecap="round"/>
</svg>
