<svg width="current" height="current" viewBox="0 0 25 25" fill="none" xmlns="http://www.w3.org/2000/svg">
<path d="M3.42676 10.0396C3.42676 9.01566 4.25687 8.18555 5.28086 8.18555V8.18555C5.98314 8.18555 6.62515 7.78876 6.93922 7.16062L7.76009 5.51888C7.87005 5.29896 7.92503 5.18901 7.98737 5.09337C8.31266 4.59436 8.84344 4.26632 9.43523 4.19854C9.54866 4.18555 9.6716 4.18555 9.91747 4.18555H14.936C15.1819 4.18555 15.3049 4.18555 15.4183 4.19854C16.0101 4.26632 16.5409 4.59436 16.8661 5.09337C16.9285 5.18901 16.9835 5.29896 17.0934 5.51888L17.9143 7.16062C18.2284 7.78877 18.8704 8.18555 19.5727 8.18555V8.18555C20.5966 8.18555 21.4268 9.01566 21.4268 10.0396V15.0427C21.4268 17.0475 21.4268 18.0498 20.9669 18.7816C20.7271 19.1633 20.4045 19.4859 20.0229 19.7257C19.291 20.1855 18.2887 20.1855 16.2839 20.1855H8.56961C6.56485 20.1855 5.56247 20.1855 4.83066 19.7257C4.44905 19.4859 4.12637 19.1633 3.88659 18.7816C3.42676 18.0498 3.42676 17.0475 3.42676 15.0427V10.0396Z" stroke="white" stroke-width="2"/>
<circle cx="12.4268" cy="13.1855" r="3" stroke="white" stroke-width="2"/>
</svg>
