<svg width="current" height="current" viewBox="0 0 25 24" fill="none" xmlns="http://www.w3.org/2000/svg">
<g clip-path="url(#clip0_599_1061)">
<path fill-rule="evenodd" clip-rule="evenodd" d="M6.7255 2.5H13.2081C14.0131 2.49999 14.6774 2.49998 15.2186 2.54419C15.7807 2.59012 16.2974 2.68868 16.7828 2.93597C17.5354 3.31947 18.1473 3.93139 18.5308 4.68404C18.7781 5.16937 18.8767 5.68608 18.9226 6.24817C18.9548 6.64201 18.9635 7.10107 18.9659 7.63207L23.4121 4.66795C23.719 4.46338 24.1135 4.44431 24.4387 4.61833C24.7638 4.79235 24.9668 5.13121 24.9668 5.5V18.5C24.9668 18.8688 24.7638 19.2077 24.4387 19.3817C24.1135 19.5557 23.719 19.5366 23.4121 19.3321L18.9659 16.3679C18.9635 16.8989 18.9548 17.358 18.9226 17.7518C18.8767 18.3139 18.7781 18.8306 18.5308 19.316C18.1473 20.0686 17.5354 20.6805 16.7828 21.064C16.2974 21.3113 15.7807 21.4099 15.2186 21.4558C14.6774 21.5 14.0131 21.5 13.2081 21.5H6.72547C5.92051 21.5 5.25616 21.5 4.71497 21.4558C4.15287 21.4099 3.63617 21.3113 3.15084 21.064C2.39819 20.6805 1.78627 20.0686 1.40277 19.316C1.15548 18.8306 1.05692 18.3139 1.01099 17.7518C0.966774 17.2106 0.966785 16.5463 0.966797 15.7413V8.2587C0.966785 7.45373 0.966774 6.78937 1.01099 6.24817C1.05692 5.68608 1.15548 5.16937 1.40277 4.68404C1.78627 3.93139 2.39819 3.31947 3.15084 2.93597C3.63617 2.68868 4.15287 2.59012 4.71497 2.54419C5.25617 2.49998 5.92053 2.49999 6.7255 2.5ZM18.9668 13.9648L22.9668 16.6315V7.36852L18.9668 10.0352V13.9648ZM4.87784 4.53755C4.43942 4.57337 4.21522 4.6383 4.05882 4.71799C3.68249 4.90973 3.37653 5.2157 3.18478 5.59202C3.10509 5.74842 3.04017 5.97262 3.00435 6.41104C2.96758 6.86113 2.9668 7.44342 2.9668 8.3V15.7C2.9668 16.5566 2.96758 17.1389 3.00435 17.589C3.04017 18.0274 3.10509 18.2516 3.18478 18.408C3.37653 18.7843 3.68249 19.0903 4.05882 19.282C4.21522 19.3617 4.43942 19.4266 4.87784 19.4624C5.32792 19.4992 5.91022 19.5 6.7668 19.5H13.1668C14.0234 19.5 14.6057 19.4992 15.0558 19.4624C15.4942 19.4266 15.7184 19.3617 15.8748 19.282C16.2511 19.0903 16.5571 18.7843 16.7488 18.408C16.8285 18.2516 16.8934 18.0274 16.9292 17.589C16.966 17.1389 16.9668 16.5566 16.9668 15.7V8.3C16.9668 7.44342 16.966 6.86113 16.9292 6.41104C16.8934 5.97262 16.8285 5.74842 16.7488 5.59202C16.5571 5.2157 16.2511 4.90973 15.8748 4.71799C15.7184 4.6383 15.4942 4.57337 15.0558 4.53755C14.6057 4.50078 14.0234 4.5 13.1668 4.5H6.7668C5.91022 4.5 5.32792 4.50078 4.87784 4.53755Z" fill="#212121"/>
</g>
<defs>
<clipPath id="clip0_599_1061">
<rect width="24" height="24" fill="white" transform="translate(0.966797)"/>
</clipPath>
</defs>
</svg>
