<svg width="16" height="17" viewBox="0 0 16 17" fill="none" xmlns="http://www.w3.org/2000/svg">
<path fill-rule="evenodd" clip-rule="evenodd" d="M0.562424 0.968674C0.952949 0.57815 1.58611 0.57815 1.97664 0.968674L8.01953 7.01157L14.0624 0.968674C14.4529 0.57815 15.0861 0.57815 15.4766 0.968674C15.8672 1.3592 15.8672 1.99236 15.4766 2.38289L9.43374 8.42578L15.4766 14.4687C15.8672 14.8592 15.8672 15.4924 15.4766 15.8829C15.0861 16.2734 14.4529 16.2734 14.0624 15.8829L8.01953 9.83999L1.97664 15.8829C1.58611 16.2734 0.952949 16.2734 0.562424 15.8829C0.1719 15.4924 0.1719 14.8592 0.562424 14.4687L6.60532 8.42578L0.562424 2.38289C0.1719 1.99236 0.1719 1.3592 0.562424 0.968674Z" fill="#616161"/>
</svg>
