<svg width="129" height="90" viewBox="0 0 129 90" fill="none" xmlns="http://www.w3.org/2000/svg">
<path fill-rule="evenodd" clip-rule="evenodd" d="M54.2923 0.794861C47.5272 0.794861 42.043 6.16745 42.043 12.7949V40.7949C42.043 45.2131 45.6991 48.7949 50.2092 48.7949H61.6808C75.2606 48.7949 86.9573 38.4653 86.9573 24.7949C86.9573 11.1244 75.2606 0.794861 61.6808 0.794861H54.2923ZM58.3754 32.7949L61.6808 32.7949C67.0004 32.7949 70.6248 28.9022 70.6248 24.7949C70.6248 20.6875 67.0004 16.7949 61.6808 16.7949H60.3754C59.2709 16.7949 58.3754 17.6915 58.3754 18.796V32.7949Z" fill="url(#paint0_angular_1407_13778)"/>
<path fill-rule="evenodd" clip-rule="evenodd" d="M58.3754 40.7949V32.7949L50.2092 32.7949C45.6991 32.7949 42.043 36.3766 42.043 40.7949C42.043 45.2131 45.6991 48.7949 50.2092 48.7949C50.2111 48.7949 50.213 48.7949 50.2149 48.7949C54.7224 48.7918 58.3754 45.2113 58.3754 40.7949Z" fill="#89DA3D"/>
<path d="M8.18604 74.675C8.18604 73.2576 8.44974 72.0132 8.97714 70.942C9.52102 69.8707 10.2544 69.0466 11.1774 68.4698C12.1003 67.8929 13.1304 67.6045 14.2676 67.6045C15.1741 67.6045 15.9981 67.794 16.7398 68.1731C17.4979 68.5522 18.0913 69.0631 18.5198 69.7059V63.3029H22.7472V81.5971H18.5198V79.6193C18.1242 80.2786 17.5556 80.806 16.814 81.2015C16.0888 81.5971 15.24 81.7949 14.2676 81.7949C13.1304 81.7949 12.1003 81.5064 11.1774 80.9296C10.2544 80.3363 9.52102 79.504 8.97714 78.4327C8.44974 77.3449 8.18604 76.0923 8.18604 74.675ZM18.5198 74.6997C18.5198 73.6449 18.2231 72.8126 17.6298 72.2028C17.0529 71.593 16.3443 71.2881 15.5037 71.2881C14.6632 71.2881 13.9462 71.593 13.3529 72.2028C12.7761 72.7961 12.4876 73.6202 12.4876 74.675C12.4876 75.7298 12.7761 76.5703 13.3529 77.1966C13.9462 77.8064 14.6632 78.1113 15.5037 78.1113C16.3443 78.1113 17.0529 77.8064 17.6298 77.1966C18.2231 76.5868 18.5198 75.7545 18.5198 74.6997Z" fill="black"/>
<path d="M30.033 70.1014C30.5275 69.3433 31.1455 68.7499 31.8872 68.3214C32.6288 67.8764 33.4529 67.6539 34.3594 67.6539V72.1286H33.1974C32.1426 72.1286 31.3515 72.3593 30.8241 72.8208C30.2967 73.2658 30.033 74.0569 30.033 75.1941V81.5971H25.8056V67.8023H30.033V70.1014Z" fill="black"/>
<path d="M49.3837 74.4772C49.3837 74.8727 49.359 75.2848 49.3095 75.7133H39.7422C39.8081 76.5703 40.08 77.2296 40.558 77.691C41.0524 78.136 41.654 78.3585 42.3627 78.3585C43.4175 78.3585 44.1509 77.9135 44.5629 77.0235H49.0623C48.8316 77.93 48.4113 78.7458 47.8015 79.471C47.2082 80.1962 46.4583 80.7648 45.5518 81.1768C44.6453 81.5888 43.6317 81.7949 42.511 81.7949C41.1595 81.7949 39.9564 81.5064 38.9016 80.9296C37.8468 80.3527 37.0228 79.5287 36.4294 78.4574C35.8361 77.3861 35.5394 76.1335 35.5394 74.6997C35.5394 73.2658 35.8279 72.0132 36.4047 70.942C36.998 69.8707 37.8221 69.0466 38.8769 68.4698C39.9317 67.8929 41.1431 67.6045 42.511 67.6045C43.846 67.6045 45.0326 67.8847 46.071 68.445C47.1093 69.0054 47.9169 69.8047 48.4937 70.8431C49.087 71.8814 49.3837 73.0928 49.3837 74.4772ZM45.0574 73.3647C45.0574 72.6395 44.8101 72.0627 44.3157 71.6342C43.8213 71.2057 43.2032 70.9914 42.4616 70.9914C41.7529 70.9914 41.1513 71.1974 40.6569 71.6094C40.1789 72.0215 39.8822 72.6066 39.7669 73.3647H45.0574Z" fill="black"/>
<path d="M50.7733 74.675C50.7733 73.2576 51.037 72.0132 51.5644 70.942C52.1083 69.8707 52.8417 69.0466 53.7647 68.4698C54.6876 67.8929 55.7177 67.6045 56.8549 67.6045C57.8273 67.6045 58.6761 67.8023 59.4013 68.1978C60.1429 68.5934 60.7115 69.1125 61.1071 69.7553V67.8023H65.3345V81.5971H61.1071V79.6441C60.695 80.2868 60.1182 80.806 59.3765 81.2015C58.6514 81.5971 57.8026 81.7949 56.8302 81.7949C55.7095 81.7949 54.6876 81.5064 53.7647 80.9296C52.8417 80.3363 52.1083 79.504 51.5644 78.4327C51.037 77.3449 50.7733 76.0923 50.7733 74.675ZM61.1071 74.6997C61.1071 73.6449 60.8104 72.8126 60.2171 72.2028C59.6402 71.593 58.9315 71.2881 58.091 71.2881C57.2505 71.2881 56.5335 71.593 55.9402 72.2028C55.3634 72.7961 55.0749 73.6202 55.0749 74.675C55.0749 75.7298 55.3634 76.5703 55.9402 77.1966C56.5335 77.8064 57.2505 78.1113 58.091 78.1113C58.9315 78.1113 59.6402 77.8064 60.2171 77.1966C60.8104 76.5868 61.1071 75.7545 61.1071 74.6997Z" fill="black"/>
<path d="M85.9949 67.6539C87.7089 67.6539 89.0686 68.1731 90.074 69.2114C91.0958 70.2497 91.6067 71.6919 91.6067 73.5378V81.5971H87.404V74.1064C87.404 73.2164 87.165 72.5324 86.6871 72.0544C86.2256 71.56 85.5828 71.3128 84.7588 71.3128C83.9347 71.3128 83.2837 71.56 82.8057 72.0544C82.3443 72.5324 82.1135 73.2164 82.1135 74.1064V81.5971H77.9108V74.1064C77.9108 73.2164 77.6718 72.5324 77.1939 72.0544C76.7324 71.56 76.0896 71.3128 75.2656 71.3128C74.4415 71.3128 73.7905 71.56 73.3125 72.0544C72.8511 72.5324 72.6203 73.2164 72.6203 74.1064V81.5971H68.3929V67.8023H72.6203V69.5328C73.0488 68.956 73.6092 68.5027 74.3014 68.1731C74.9936 67.827 75.7765 67.6539 76.65 67.6539C77.6883 67.6539 78.6113 67.8764 79.4188 68.3214C80.2429 68.7664 80.8857 69.401 81.3471 70.225C81.8251 69.4669 82.4761 68.8488 83.3002 68.3709C84.1242 67.8929 85.0225 67.6539 85.9949 67.6539Z" fill="black"/>
<path d="M101.928 66.3684C101.187 66.3684 100.577 66.1542 100.099 65.7256C99.6374 65.2806 99.4067 64.7368 99.4067 64.094C99.4067 63.4347 99.6374 62.8909 100.099 62.4624C100.577 62.0174 101.187 61.7949 101.928 61.7949C102.653 61.7949 103.247 62.0174 103.708 62.4624C104.186 62.8909 104.425 63.4347 104.425 64.094C104.425 64.7368 104.186 65.2806 103.708 65.7256C103.247 66.1542 102.653 66.3684 101.928 66.3684ZM104.03 67.8023V81.5971H99.8022V67.8023H104.03Z" fill="black"/>
<path d="M115.499 67.6539C117.114 67.6539 118.399 68.1813 119.355 69.2361C120.328 70.2745 120.814 71.7083 120.814 73.5378V81.5971H116.611V74.1064C116.611 73.1834 116.372 72.4665 115.894 71.9556C115.416 71.4446 114.773 71.1892 113.966 71.1892C113.158 71.1892 112.516 71.4446 112.038 71.9556C111.56 72.4665 111.321 73.1834 111.321 74.1064V81.5971H107.093V67.8023H111.321V69.6317C111.749 69.0219 112.326 68.5439 113.051 68.1978C113.776 67.8352 114.592 67.6539 115.499 67.6539Z" fill="black"/>
<mask id="mask0_1407_13778" style="mask-type:alpha" maskUnits="userSpaceOnUse" x="8" y="61" width="113" height="21">
<path d="M8.18604 74.675C8.18604 73.2576 8.44974 72.0132 8.97714 70.942C9.52102 69.8707 10.2544 69.0466 11.1774 68.4698C12.1003 67.8929 13.1304 67.6045 14.2676 67.6045C15.1741 67.6045 15.9981 67.794 16.7398 68.1731C17.4979 68.5522 18.0913 69.0631 18.5198 69.7059V63.3029H22.7472V81.5971H18.5198V79.6193C18.1242 80.2786 17.5556 80.806 16.814 81.2015C16.0888 81.5971 15.24 81.7949 14.2676 81.7949C13.1304 81.7949 12.1003 81.5064 11.1774 80.9296C10.2544 80.3363 9.52102 79.504 8.97714 78.4327C8.44974 77.3449 8.18604 76.0923 8.18604 74.675ZM18.5198 74.6997C18.5198 73.6449 18.2231 72.8126 17.6298 72.2028C17.0529 71.593 16.3443 71.2881 15.5037 71.2881C14.6632 71.2881 13.9462 71.593 13.3529 72.2028C12.7761 72.7961 12.4876 73.6202 12.4876 74.675C12.4876 75.7298 12.7761 76.5703 13.3529 77.1966C13.9462 77.8064 14.6632 78.1113 15.5037 78.1113C16.3443 78.1113 17.0529 77.8064 17.6298 77.1966C18.2231 76.5868 18.5198 75.7545 18.5198 74.6997Z" fill="black"/>
<path d="M30.033 70.1014C30.5275 69.3433 31.1455 68.7499 31.8872 68.3214C32.6288 67.8764 33.4529 67.6539 34.3594 67.6539V72.1286H33.1974C32.1426 72.1286 31.3515 72.3593 30.8241 72.8208C30.2967 73.2658 30.033 74.0569 30.033 75.1941V81.5971H25.8056V67.8023H30.033V70.1014Z" fill="black"/>
<path d="M49.3837 74.4772C49.3837 74.8727 49.359 75.2848 49.3095 75.7133H39.7422C39.8081 76.5703 40.08 77.2296 40.558 77.691C41.0524 78.136 41.654 78.3585 42.3627 78.3585C43.4175 78.3585 44.1509 77.9135 44.5629 77.0235H49.0623C48.8316 77.93 48.4113 78.7458 47.8015 79.471C47.2082 80.1962 46.4583 80.7648 45.5518 81.1768C44.6453 81.5888 43.6317 81.7949 42.511 81.7949C41.1595 81.7949 39.9564 81.5064 38.9016 80.9296C37.8468 80.3527 37.0228 79.5287 36.4294 78.4574C35.8361 77.3861 35.5394 76.1335 35.5394 74.6997C35.5394 73.2658 35.8279 72.0132 36.4047 70.942C36.998 69.8707 37.8221 69.0466 38.8769 68.4698C39.9317 67.8929 41.1431 67.6045 42.511 67.6045C43.846 67.6045 45.0326 67.8847 46.071 68.445C47.1093 69.0054 47.9169 69.8047 48.4937 70.8431C49.087 71.8814 49.3837 73.0928 49.3837 74.4772ZM45.0574 73.3647C45.0574 72.6395 44.8101 72.0627 44.3157 71.6342C43.8213 71.2057 43.2032 70.9914 42.4616 70.9914C41.7529 70.9914 41.1513 71.1974 40.6569 71.6094C40.1789 72.0215 39.8822 72.6066 39.7669 73.3647H45.0574Z" fill="black"/>
<path d="M50.7733 74.675C50.7733 73.2576 51.037 72.0132 51.5644 70.942C52.1083 69.8707 52.8417 69.0466 53.7647 68.4698C54.6876 67.8929 55.7177 67.6045 56.8549 67.6045C57.8273 67.6045 58.6761 67.8023 59.4013 68.1978C60.1429 68.5934 60.7115 69.1125 61.1071 69.7553V67.8023H65.3345V81.5971H61.1071V79.6441C60.695 80.2868 60.1182 80.806 59.3765 81.2015C58.6514 81.5971 57.8026 81.7949 56.8302 81.7949C55.7095 81.7949 54.6876 81.5064 53.7647 80.9296C52.8417 80.3363 52.1083 79.504 51.5644 78.4327C51.037 77.3449 50.7733 76.0923 50.7733 74.675ZM61.1071 74.6997C61.1071 73.6449 60.8104 72.8126 60.2171 72.2028C59.6402 71.593 58.9315 71.2881 58.091 71.2881C57.2505 71.2881 56.5335 71.593 55.9402 72.2028C55.3634 72.7961 55.0749 73.6202 55.0749 74.675C55.0749 75.7298 55.3634 76.5703 55.9402 77.1966C56.5335 77.8064 57.2505 78.1113 58.091 78.1113C58.9315 78.1113 59.6402 77.8064 60.2171 77.1966C60.8104 76.5868 61.1071 75.7545 61.1071 74.6997Z" fill="black"/>
<path d="M85.9949 67.6539C87.7089 67.6539 89.0686 68.1731 90.074 69.2114C91.0958 70.2497 91.6067 71.6919 91.6067 73.5378V81.5971H87.404V74.1064C87.404 73.2164 87.165 72.5324 86.6871 72.0544C86.2256 71.56 85.5828 71.3128 84.7588 71.3128C83.9347 71.3128 83.2837 71.56 82.8057 72.0544C82.3443 72.5324 82.1135 73.2164 82.1135 74.1064V81.5971H77.9108V74.1064C77.9108 73.2164 77.6718 72.5324 77.1939 72.0544C76.7324 71.56 76.0896 71.3128 75.2656 71.3128C74.4415 71.3128 73.7905 71.56 73.3125 72.0544C72.8511 72.5324 72.6203 73.2164 72.6203 74.1064V81.5971H68.3929V67.8023H72.6203V69.5328C73.0488 68.956 73.6092 68.5027 74.3014 68.1731C74.9936 67.827 75.7765 67.6539 76.65 67.6539C77.6883 67.6539 78.6112 67.8764 79.4188 68.3214C80.2429 68.7664 80.8857 69.401 81.3471 70.225C81.8251 69.4669 82.4761 68.8488 83.3002 68.3709C84.1242 67.8929 85.0225 67.6539 85.9949 67.6539Z" fill="black"/>
<path d="M101.928 66.3684C101.187 66.3684 100.577 66.1542 100.099 65.7256C99.6374 65.2806 99.4067 64.7368 99.4067 64.094C99.4067 63.4347 99.6374 62.8909 100.099 62.4624C100.577 62.0174 101.187 61.7949 101.928 61.7949C102.653 61.7949 103.247 62.0174 103.708 62.4624C104.186 62.8909 104.425 63.4347 104.425 64.094C104.425 64.7368 104.186 65.2806 103.708 65.7256C103.247 66.1542 102.653 66.3684 101.928 66.3684ZM104.03 67.8023V81.5971H99.8022V67.8023H104.03Z" fill="black"/>
<path d="M115.499 67.6539C117.114 67.6539 118.399 68.1813 119.355 69.2361C120.328 70.2745 120.814 71.7083 120.814 73.5378V81.5971H116.611V74.1064C116.611 73.1834 116.372 72.4665 115.894 71.9556C115.416 71.4446 114.773 71.1892 113.966 71.1892C113.158 71.1892 112.516 71.4446 112.038 71.9556C111.56 72.4665 111.321 73.1834 111.321 74.1064V81.5971H107.093V67.8023H111.321V69.6317C111.749 69.0219 112.326 68.5439 113.051 68.1978C113.776 67.8352 114.592 67.6539 115.499 67.6539Z" fill="black"/>
</mask>
<g mask="url(#mask0_1407_13778)">
<rect x="97.314" y="57.6689" width="9.33825" height="9.81712" fill="#89DA3D"/>
</g>
<defs>
<radialGradient id="paint0_angular_1407_13778" cx="0" cy="0" r="1" gradientUnits="userSpaceOnUse" gradientTransform="translate(64.5001 24.7949) rotate(117.039) scale(8.98175 7.95553)">
<stop stop-color="#ABF066"/>
<stop offset="1" stop-color="#ABF066"/>
<stop offset="1" stop-color="#ABF066"/>
</radialGradient>
</defs>
</svg>
