<svg width="113" height="21" viewBox="0 0 113 21" fill="none" xmlns="http://www.w3.org/2000/svg">
<path d="M0.356445 13.6404C0.356445 12.223 0.620145 10.9786 1.14755 9.90735C1.69143 8.83607 2.42484 8.012 3.34779 7.43516C4.27074 6.85832 5.30082 6.56989 6.43803 6.56989C7.3445 6.56989 8.16856 6.75943 8.91021 7.1385C9.66835 7.51757 10.2617 8.02849 10.6902 8.67125V2.26829H14.9176V20.5625H10.6902V18.5847C10.2946 19.244 9.72604 19.7714 8.98438 20.1669C8.2592 20.5625 7.41042 20.7603 6.43803 20.7603C5.30082 20.7603 4.27074 20.4718 3.34779 19.895C2.42484 19.3017 1.69143 18.4694 1.14755 17.3981C0.620145 16.3103 0.356445 15.0577 0.356445 13.6404ZM10.6902 13.6651C10.6902 12.6103 10.3935 11.778 9.8002 11.1682C9.22336 10.5584 8.51466 10.2535 7.67412 10.2535C6.83358 10.2535 6.11664 10.5584 5.52332 11.1682C4.94647 11.7615 4.65805 12.5856 4.65805 13.6404C4.65805 14.6952 4.94647 15.5357 5.52332 16.162C6.11664 16.7718 6.83358 17.0767 7.67412 17.0767C8.51466 17.0767 9.22336 16.7718 9.8002 16.162C10.3935 15.5522 10.6902 14.7199 10.6902 13.6651Z" fill="black"/>
<path d="M22.2034 9.0668C22.6979 8.30867 23.3159 7.71534 24.0576 7.28683C24.7992 6.84184 25.6233 6.61934 26.5298 6.61934V11.094H25.3678C24.313 11.094 23.5219 11.3247 22.9945 11.7862C22.4671 12.2312 22.2034 13.0223 22.2034 14.1595V20.5625H17.976V6.76767H22.2034V9.0668Z" fill="black"/>
<path d="M41.5541 13.4426C41.5541 13.8381 41.5294 14.2502 41.4799 14.6787H31.9126C31.9785 15.5357 32.2504 16.1949 32.7284 16.6564C33.2228 17.1014 33.8244 17.3239 34.5331 17.3239C35.5879 17.3239 36.3213 16.8789 36.7333 15.9889H41.2327C41.002 16.8954 40.5817 17.7112 39.9719 18.4364C39.3786 19.1616 38.6287 19.7302 37.7222 20.1422C36.8157 20.5542 35.8021 20.7603 34.6814 20.7603C33.33 20.7603 32.1268 20.4718 31.072 19.895C30.0172 19.3181 29.1932 18.4941 28.5998 17.4228C28.0065 16.3515 27.7098 15.0989 27.7098 13.6651C27.7098 12.2312 27.9983 10.9786 28.5751 9.90735C29.1684 8.83607 29.9925 8.012 31.0473 7.43516C32.1021 6.85832 33.3135 6.56989 34.6814 6.56989C36.0164 6.56989 37.203 6.85008 38.2414 7.41044C39.2797 7.9708 40.0873 8.77014 40.6641 9.80846C41.2574 10.8468 41.5541 12.0582 41.5541 13.4426ZM37.2278 12.3301C37.2278 11.6049 36.9806 11.0281 36.4861 10.5996C35.9917 10.171 35.3736 9.95679 34.632 9.95679C33.9233 9.95679 33.3217 10.1628 32.8273 10.5748C32.3493 10.9869 32.0527 11.572 31.9373 12.3301H37.2278Z" fill="black"/>
<path d="M42.9437 13.6404C42.9437 12.223 43.2074 10.9786 43.7348 9.90735C44.2787 8.83607 45.0121 8.012 45.9351 7.43516C46.858 6.85832 47.8881 6.56989 49.0253 6.56989C49.9977 6.56989 50.8465 6.76767 51.5717 7.16322C52.3133 7.55877 52.8819 8.07793 53.2775 8.7207V6.76767H57.5049V20.5625H53.2775V18.6094C52.8654 19.2522 52.2886 19.7714 51.5469 20.1669C50.8218 20.5625 49.973 20.7603 49.0006 20.7603C47.8799 20.7603 46.858 20.4718 45.9351 19.895C45.0121 19.3017 44.2787 18.4694 43.7348 17.3981C43.2074 16.3103 42.9437 15.0577 42.9437 13.6404ZM53.2775 13.6651C53.2775 12.6103 52.9808 11.778 52.3875 11.1682C51.8106 10.5584 51.102 10.2535 50.2614 10.2535C49.4209 10.2535 48.7039 10.5584 48.1106 11.1682C47.5338 11.7615 47.2453 12.5856 47.2453 13.6404C47.2453 14.6952 47.5338 15.5357 48.1106 16.162C48.7039 16.7718 49.4209 17.0767 50.2614 17.0767C51.102 17.0767 51.8106 16.7718 52.3875 16.162C52.9808 15.5522 53.2775 14.7199 53.2775 13.6651Z" fill="black"/>
<path d="M78.1653 6.61934C79.8793 6.61934 81.239 7.1385 82.2444 8.17682C83.2662 9.21514 83.7771 10.6572 83.7771 12.5031V20.5625H79.5744V13.0717C79.5744 12.1818 79.3354 11.4978 78.8575 11.0198C78.396 10.5254 77.7532 10.2782 76.9292 10.2782C76.1051 10.2782 75.4541 10.5254 74.9761 11.0198C74.5147 11.4978 74.2839 12.1818 74.2839 13.0717V20.5625H70.0812V13.0717C70.0812 12.1818 69.8422 11.4978 69.3643 11.0198C68.9028 10.5254 68.26 10.2782 67.436 10.2782C66.6119 10.2782 65.9609 10.5254 65.4829 11.0198C65.0215 11.4978 64.7907 12.1818 64.7907 13.0717V20.5625H60.5633V6.76767H64.7907V8.4982C65.2192 7.92136 65.7796 7.46812 66.4718 7.1385C67.164 6.79239 67.9469 6.61934 68.8204 6.61934C69.8587 6.61934 70.7817 6.84184 71.5892 7.28683C72.4133 7.73182 73.0561 8.36635 73.5176 9.19041C73.9955 8.43228 74.6465 7.81423 75.4706 7.33627C76.2946 6.85832 77.1929 6.61934 78.1653 6.61934Z" fill="black"/>
<path d="M94.0987 5.3338C93.357 5.3338 92.7472 5.11954 92.2693 4.69103C91.8078 4.24604 91.5771 3.70216 91.5771 3.05939C91.5771 2.40014 91.8078 1.85626 92.2693 1.42774C92.7472 0.982751 93.357 0.760254 94.0987 0.760254C94.8239 0.760254 95.4172 0.982751 95.8787 1.42774C96.3566 1.85626 96.5956 2.40014 96.5956 3.05939C96.5956 3.70216 96.3566 4.24604 95.8787 4.69103C95.4172 5.11954 94.8239 5.3338 94.0987 5.3338ZM96.2001 6.76767V20.5625H91.9726V6.76767H96.2001Z" fill="black"/>
<path d="M107.669 6.61934C109.284 6.61934 110.57 7.14674 111.526 8.20154C112.498 9.23986 112.984 10.6737 112.984 12.5031V20.5625H108.782V13.0717C108.782 12.1488 108.543 11.4319 108.065 10.9209C107.587 10.41 106.944 10.1546 106.136 10.1546C105.329 10.1546 104.686 10.41 104.208 10.9209C103.73 11.4319 103.491 12.1488 103.491 13.0717V20.5625H99.2636V6.76767H103.491V8.59709C103.92 7.98728 104.496 7.50933 105.222 7.16322C105.947 6.80063 106.763 6.61934 107.669 6.61934Z" fill="black"/>
<mask id="mask0_612_11209" style="mask-type:alpha" maskUnits="userSpaceOnUse" x="0" y="0" width="113" height="21">
<path d="M0.356445 13.6404C0.356445 12.223 0.620145 10.9786 1.14755 9.90735C1.69143 8.83607 2.42484 8.012 3.34779 7.43516C4.27074 6.85832 5.30082 6.56989 6.43803 6.56989C7.3445 6.56989 8.16856 6.75943 8.91021 7.1385C9.66835 7.51757 10.2617 8.02849 10.6902 8.67125V2.26829H14.9176V20.5625H10.6902V18.5847C10.2946 19.244 9.72604 19.7714 8.98438 20.1669C8.2592 20.5625 7.41042 20.7603 6.43803 20.7603C5.30082 20.7603 4.27074 20.4718 3.34779 19.895C2.42484 19.3017 1.69143 18.4694 1.14755 17.3981C0.620145 16.3103 0.356445 15.0577 0.356445 13.6404ZM10.6902 13.6651C10.6902 12.6103 10.3935 11.778 9.8002 11.1682C9.22336 10.5584 8.51466 10.2535 7.67412 10.2535C6.83358 10.2535 6.11664 10.5584 5.52332 11.1682C4.94647 11.7615 4.65805 12.5856 4.65805 13.6404C4.65805 14.6952 4.94647 15.5357 5.52332 16.162C6.11664 16.7718 6.83358 17.0767 7.67412 17.0767C8.51466 17.0767 9.22336 16.7718 9.8002 16.162C10.3935 15.5522 10.6902 14.7199 10.6902 13.6651Z" fill="black"/>
<path d="M22.2034 9.0668C22.6979 8.30867 23.3159 7.71534 24.0576 7.28683C24.7992 6.84184 25.6233 6.61934 26.5298 6.61934V11.094H25.3678C24.313 11.094 23.5219 11.3247 22.9945 11.7862C22.4671 12.2312 22.2034 13.0223 22.2034 14.1595V20.5625H17.976V6.76767H22.2034V9.0668Z" fill="black"/>
<path d="M41.5541 13.4426C41.5541 13.8381 41.5294 14.2502 41.4799 14.6787H31.9126C31.9785 15.5357 32.2504 16.1949 32.7284 16.6564C33.2228 17.1014 33.8244 17.3239 34.5331 17.3239C35.5879 17.3239 36.3213 16.8789 36.7333 15.9889H41.2327C41.002 16.8954 40.5817 17.7112 39.9719 18.4364C39.3786 19.1616 38.6287 19.7302 37.7222 20.1422C36.8157 20.5542 35.8021 20.7603 34.6814 20.7603C33.33 20.7603 32.1268 20.4718 31.072 19.895C30.0172 19.3181 29.1932 18.4941 28.5998 17.4228C28.0065 16.3515 27.7098 15.0989 27.7098 13.6651C27.7098 12.2312 27.9983 10.9786 28.5751 9.90735C29.1684 8.83607 29.9925 8.012 31.0473 7.43516C32.1021 6.85832 33.3135 6.56989 34.6814 6.56989C36.0164 6.56989 37.203 6.85008 38.2414 7.41044C39.2797 7.9708 40.0873 8.77014 40.6641 9.80846C41.2574 10.8468 41.5541 12.0582 41.5541 13.4426ZM37.2278 12.3301C37.2278 11.6049 36.9806 11.0281 36.4861 10.5996C35.9917 10.171 35.3736 9.95679 34.632 9.95679C33.9233 9.95679 33.3217 10.1628 32.8273 10.5748C32.3493 10.9869 32.0527 11.572 31.9373 12.3301H37.2278Z" fill="black"/>
<path d="M42.9437 13.6404C42.9437 12.223 43.2074 10.9786 43.7348 9.90735C44.2787 8.83607 45.0121 8.012 45.9351 7.43516C46.858 6.85832 47.8881 6.56989 49.0253 6.56989C49.9977 6.56989 50.8465 6.76767 51.5717 7.16322C52.3133 7.55877 52.8819 8.07793 53.2775 8.7207V6.76767H57.5049V20.5625H53.2775V18.6094C52.8655 19.2522 52.2886 19.7714 51.5469 20.1669C50.8218 20.5625 49.973 20.7603 49.0006 20.7603C47.8799 20.7603 46.858 20.4718 45.9351 19.895C45.0121 19.3017 44.2787 18.4694 43.7348 17.3981C43.2074 16.3103 42.9437 15.0577 42.9437 13.6404ZM53.2775 13.6651C53.2775 12.6103 52.9808 11.778 52.3875 11.1682C51.8106 10.5584 51.102 10.2535 50.2614 10.2535C49.4209 10.2535 48.7039 10.5584 48.1106 11.1682C47.5338 11.7615 47.2453 12.5856 47.2453 13.6404C47.2453 14.6952 47.5338 15.5357 48.1106 16.162C48.7039 16.7718 49.4209 17.0767 50.2614 17.0767C51.102 17.0767 51.8106 16.7718 52.3875 16.162C52.9808 15.5522 53.2775 14.7199 53.2775 13.6651Z" fill="black"/>
<path d="M78.1653 6.61934C79.8793 6.61934 81.239 7.1385 82.2444 8.17682C83.2662 9.21514 83.7771 10.6572 83.7771 12.5031V20.5625H79.5744V13.0717C79.5744 12.1818 79.3354 11.4978 78.8575 11.0198C78.396 10.5254 77.7532 10.2782 76.9292 10.2782C76.1051 10.2782 75.4541 10.5254 74.9761 11.0198C74.5147 11.4978 74.2839 12.1818 74.2839 13.0717V20.5625H70.0812V13.0717C70.0812 12.1818 69.8422 11.4978 69.3643 11.0198C68.9028 10.5254 68.26 10.2782 67.436 10.2782C66.6119 10.2782 65.9609 10.5254 65.4829 11.0198C65.0215 11.4978 64.7907 12.1818 64.7907 13.0717V20.5625H60.5633V6.76767H64.7907V8.4982C65.2192 7.92136 65.7796 7.46812 66.4718 7.1385C67.164 6.79239 67.9469 6.61934 68.8204 6.61934C69.8587 6.61934 70.7817 6.84184 71.5892 7.28683C72.4133 7.73182 73.0561 8.36635 73.5176 9.19041C73.9955 8.43228 74.6465 7.81423 75.4706 7.33627C76.2946 6.85832 77.1929 6.61934 78.1653 6.61934Z" fill="black"/>
<path d="M94.0987 5.3338C93.3571 5.3338 92.7472 5.11954 92.2693 4.69103C91.8078 4.24604 91.5771 3.70216 91.5771 3.05939C91.5771 2.40014 91.8078 1.85626 92.2693 1.42774C92.7472 0.982751 93.3571 0.760254 94.0987 0.760254C94.8239 0.760254 95.4172 0.982751 95.8787 1.42774C96.3566 1.85626 96.5956 2.40014 96.5956 3.05939C96.5956 3.70216 96.3566 4.24604 95.8787 4.69103C95.4172 5.11954 94.8239 5.3338 94.0987 5.3338ZM96.2001 6.76767V20.5625H91.9726V6.76767H96.2001Z" fill="black"/>
<path d="M107.669 6.61934C109.284 6.61934 110.57 7.14674 111.526 8.20154C112.498 9.23986 112.984 10.6737 112.984 12.5031V20.5625H108.782V13.0717C108.782 12.1488 108.543 11.4319 108.065 10.9209C107.587 10.41 106.944 10.1546 106.136 10.1546C105.329 10.1546 104.686 10.41 104.208 10.9209C103.73 11.4319 103.491 12.1488 103.491 13.0717V20.5625H99.2636V6.76767H103.491V8.59709C103.92 7.98728 104.496 7.50933 105.222 7.16322C105.947 6.80063 106.763 6.61934 107.669 6.61934Z" fill="black"/>
</mask>
<g mask="url(#mask0_612_11209)">
<rect x="89.4844" y="-3.36572" width="9.33825" height="9.81712" fill="#89DA3D"/>
</g>
</svg>
