<svg width="25" height="25" viewBox="0 0 25 25" fill="none" xmlns="http://www.w3.org/2000/svg">
<path d="M12.7034 14.5382L9.0127 15.2025L9.62781 11.4627L16.677 4.43812C16.7913 4.32281 16.9274 4.23129 17.0773 4.16883C17.2272 4.10637 17.388 4.07422 17.5504 4.07422C17.7128 4.07422 17.8736 4.10637 18.0235 4.16883C18.1735 4.23129 18.3095 4.32281 18.4239 4.43812L19.7279 5.74215C19.8432 5.85651 19.9347 5.99258 19.9972 6.14249C20.0597 6.29241 20.0918 6.4532 20.0918 6.61561C20.0918 6.77801 20.0597 6.93881 19.9972 7.08872C19.9347 7.23863 19.8432 7.3747 19.7279 7.48906L12.7034 14.5382Z" stroke="#212121" stroke-width="2" stroke-linecap="round" stroke-linejoin="round"/>
<path d="M18.2393 15.1531V18.8438C18.2393 19.17 18.1097 19.483 17.879 19.7137C17.6483 19.9444 17.3354 20.074 17.0091 20.074H5.32202C4.99574 20.074 4.68283 19.9444 4.45212 19.7137C4.22141 19.483 4.0918 19.17 4.0918 18.8438V7.15667C4.0918 6.8304 4.22141 6.51749 4.45212 6.28678C4.68283 6.05606 4.99574 5.92645 5.32202 5.92645H9.01268" stroke="#212121" stroke-width="2" stroke-linecap="round" stroke-linejoin="round"/>
</svg>
