<svg width="25" height="25" viewBox="0 0 25 25" fill="none" xmlns="http://www.w3.org/2000/svg">
<g clip-path="url(#clip0_806_13555)">
<path fill-rule="evenodd" clip-rule="evenodd" d="M13.7402 22.1279C13.9471 22.1279 14.1326 22.0005 14.2069 21.8074C15.1514 19.3518 17.6832 17.8901 20.2821 18.2999C20.4864 18.3322 20.6895 18.2352 20.793 18.056L21.576 16.6998C21.6794 16.5207 21.6618 16.2963 21.5317 16.1354C19.8774 14.0897 19.8774 11.1662 21.5317 9.12044C21.6618 8.95957 21.6794 8.7352 21.576 8.55603L20.793 7.19983C20.6895 7.02066 20.4864 6.92371 20.2821 6.95594C17.6832 7.3658 15.1514 5.90402 14.2069 3.44844C14.1326 3.25534 13.9471 3.12793 13.7402 3.12793L12.1742 3.12793C11.9673 3.12793 11.7818 3.25534 11.7076 3.44844C10.7631 5.90403 8.23122 7.3658 5.63239 6.95594C5.42804 6.92371 5.22493 7.02066 5.12149 7.19983L4.33849 8.55603C4.23504 8.7352 4.25263 8.95957 4.38272 9.12044C6.03709 11.1662 6.03709 14.0897 4.38272 16.1354C4.25263 16.2963 4.23505 16.5207 4.33849 16.6998L2.60644 17.6998C2.08922 16.804 2.17715 15.6821 2.82761 14.8778C3.8888 13.5656 3.8888 11.6903 2.82761 10.3781C2.17715 9.57373 2.08922 8.45188 2.60644 7.55603L3.38944 6.19983C3.90665 5.30399 4.92217 4.81921 5.94397 4.98036C7.61098 5.24326 9.23504 4.30561 9.84086 2.73049C10.2122 1.765 11.1398 1.12793 12.1742 1.12793L13.7402 1.12793C14.7747 1.12793 15.7023 1.765 16.0736 2.73048C16.6794 4.3056 18.3035 5.24326 19.9705 4.98035C20.9923 4.8192 22.0078 5.30399 22.525 6.19983L23.308 7.55603C23.8252 8.45187 23.7373 9.57373 23.0869 10.3781C22.0257 11.6903 22.0257 13.5656 23.0869 14.8778C23.7373 15.6821 23.8252 16.804 23.308 17.6998L22.525 19.056C22.0078 19.9519 20.9923 20.4367 19.9705 20.2755C18.3035 20.0126 16.6794 20.9503 16.0736 22.5254C15.7023 23.4909 14.7747 24.1279 13.7402 24.1279H12.1742C11.1398 24.1279 10.2122 23.4909 9.84086 22.5254C9.23505 20.9503 7.61098 20.0126 5.94398 20.2755C4.92218 20.4367 3.90666 19.9519 3.38944 19.056L2.60644 17.6998L4.33849 16.6998L5.12149 18.056C5.22493 18.2352 5.42804 18.3322 5.6324 18.2999C8.23122 17.8901 10.7631 19.3518 11.7076 21.8074C11.7818 22.0005 11.9673 22.1279 12.1742 22.1279H13.7402ZM8.45723 12.6279C8.45723 10.1426 10.472 8.12793 12.9572 8.12793C15.4425 8.12793 17.4572 10.1426 17.4572 12.6279C17.4572 15.1132 15.4425 17.1279 12.9572 17.1279C10.472 17.1279 8.45723 15.1132 8.45723 12.6279ZM10.4572 12.6279C10.4572 11.2472 11.5765 10.1279 12.9572 10.1279C14.3379 10.1279 15.4572 11.2472 15.4572 12.6279C15.4572 14.0086 14.3379 15.1279 12.9572 15.1279C11.5765 15.1279 10.4572 14.0086 10.4572 12.6279Z" fill="black"/>
</g>
<defs>
<clipPath id="clip0_806_13555">
<rect width="24" height="24" fill="white" transform="translate(0.957031 0.62793)"/>
</clipPath>
</defs>
</svg>
