<svg width="17" height="17" viewBox="0 0 17 17" fill="none" xmlns="http://www.w3.org/2000/svg">
<g clip-path="url(#clip0_1251_13628)">
<path fill-rule="evenodd" clip-rule="evenodd" d="M3.65876 3.58589C3.91911 3.32554 4.34122 3.32554 4.60157 3.58589L8.63017 7.61448L12.6588 3.58589C12.9191 3.32554 13.3412 3.32554 13.6016 3.58589C13.8619 3.84624 13.8619 4.26835 13.6016 4.5287L9.57298 8.55729L13.6016 12.5859C13.8619 12.8462 13.8619 13.2683 13.6016 13.5287C13.3412 13.789 12.9191 13.789 12.6588 13.5287L8.63017 9.5001L4.60157 13.5287C4.34122 13.789 3.91911 13.789 3.65876 13.5287C3.39841 13.2683 3.39841 12.8462 3.65876 12.5859L7.68736 8.55729L3.65876 4.5287C3.39841 4.26835 3.39841 3.84624 3.65876 3.58589Z" fill="#757575"/>
</g>
<defs>
<clipPath id="clip0_1251_13628">
<rect width="16" height="16" fill="white" transform="translate(0.630127 0.557129)"/>
</clipPath>
</defs>
</svg>
