<svg width="25" height="24" viewBox="0 0 25 24" fill="none" xmlns="http://www.w3.org/2000/svg">
<path d="M9.58536 9.88922C11.5083 9.88922 13.0671 8.3304 13.0671 6.4075C13.0671 4.4846 11.5083 2.92578 9.58536 2.92578C7.66246 2.92578 6.10364 4.4846 6.10364 6.4075C6.10364 8.3304 7.66246 9.88922 9.58536 9.88922Z" stroke="#89DA3D" stroke-width="2" stroke-linecap="round" stroke-linejoin="round"/>
<path d="M16.5502 21.4943H2.62329V19.9468C2.62329 18.1 3.35694 16.3288 4.66283 15.0229C5.96873 13.717 7.73991 12.9834 9.58673 12.9834C11.4335 12.9834 13.2047 13.717 14.5106 15.0229C15.8165 16.3288 16.5502 18.1 16.5502 19.9468V21.4943Z" stroke="#89DA3D" stroke-width="2" stroke-linecap="round" stroke-linejoin="round"/>
<path d="M15.7739 2.92578C16.6973 2.92578 17.5829 3.2926 18.2359 3.94555C18.8888 4.5985 19.2556 5.48409 19.2556 6.4075C19.2556 7.33091 18.8888 8.2165 18.2359 8.86945C17.5829 9.5224 16.6973 9.88922 15.7739 9.88922" stroke="#89DA3D" stroke-width="2" stroke-linecap="round" stroke-linejoin="round"/>
<path d="M18.2498 13.2798C19.5679 13.7812 20.7027 14.6711 21.5041 15.8316C22.3054 16.9922 22.7354 18.3687 22.7373 19.779V21.4966H20.4162" stroke="#89DA3D" stroke-width="2" stroke-linecap="round" stroke-linejoin="round"/>
</svg>
