<svg width="25" height="25" viewBox="0 0 25 25" fill="none" xmlns="http://www.w3.org/2000/svg">
<path d="M9.80594 10.4058C11.7288 10.4058 13.2877 8.847 13.2877 6.9241C13.2877 5.0012 11.7288 3.44238 9.80594 3.44238C7.88304 3.44238 6.32422 5.0012 6.32422 6.9241C6.32422 8.847 7.88304 10.4058 9.80594 10.4058Z" stroke="#89DA3D" stroke-width="2" stroke-linecap="round" stroke-linejoin="round"/>
<path d="M16.7706 22.0107H2.84375V20.4633C2.84375 18.6165 3.5774 16.8453 4.88329 15.5394C6.18919 14.2335 7.96037 13.4999 9.80719 13.4999C11.654 13.4999 13.4252 14.2335 14.7311 15.5394C16.037 16.8453 16.7706 18.6165 16.7706 20.4633V22.0107Z" stroke="#89DA3D" stroke-width="2" stroke-linecap="round" stroke-linejoin="round"/>
<path d="M15.9941 3.44238C16.9175 3.44238 17.8031 3.80921 18.4561 4.46215C19.109 5.1151 19.4759 6.00069 19.4759 6.9241C19.4759 7.84751 19.109 8.7331 18.4561 9.38605C17.8031 10.039 16.9175 10.4058 15.9941 10.4058" stroke="#89DA3D" stroke-width="2" stroke-linecap="round" stroke-linejoin="round"/>
<path d="M18.4707 13.7964C19.7889 14.2978 20.9237 15.1877 21.725 16.3482C22.5263 17.5088 22.9564 18.8853 22.9583 20.2956V22.0132H20.6371" stroke="#89DA3D" stroke-width="2" stroke-linecap="round" stroke-linejoin="round"/>
</svg>
