<svg width="25" height="25" viewBox="0 0 25 25" fill="none" xmlns="http://www.w3.org/2000/svg">
<path fill-rule="evenodd" clip-rule="evenodd" d="M12.2881 2.5C6.76524 2.5 2.28809 6.97715 2.28809 12.5C2.28809 18.0228 6.76524 22.5 12.2881 22.5C17.8109 22.5 22.2881 18.0228 22.2881 12.5C22.2881 6.97715 17.8109 2.5 12.2881 2.5ZM0.288086 12.5C0.288086 5.87258 5.66067 0.5 12.2881 0.5C18.9155 0.5 24.2881 5.87258 24.2881 12.5C24.2881 19.1274 18.9155 24.5 12.2881 24.5C5.66067 24.5 0.288086 19.1274 0.288086 12.5ZM13.7881 18C13.7881 18.8284 13.1165 19.5 12.2881 19.5C11.4597 19.5 10.7881 18.8284 10.7881 18C10.7881 17.1716 11.4597 16.5 12.2881 16.5C13.1165 16.5 13.7881 17.1716 13.7881 18ZM12.2881 5.5C11.6034 5.5 11.0538 6.06511 11.0728 6.74952L11.2603 13.5004C11.2758 14.0569 11.7314 14.5 12.2881 14.5C12.8448 14.5 13.3004 14.0569 13.3159 13.5004L13.5034 6.74952C13.5224 6.06511 12.9728 5.5 12.2881 5.5Z" fill="#F83D38"/>
</svg>
